<svg xmlns="http://www.w3.org/2000/svg" xmlns:xlink="http://www.w3.org/1999/xlink" viewBox="0 0 500 500"><defs><clipPath id="freepik--clip-path--inject-73"><path d="M248.75,144.86c-.71,1.71,9.49,31,15.3,39s45.62,17.44,50.9,16,30.59-35.15-12.58-60.86C292.08,132.84,254.31,131.45,248.75,144.86Z" style="fill:none"></path></clipPath></defs><g id="freepik--background-complete--inject-73"><rect y="382.4" width="500" height="0.25" style="fill:#ebebeb"></rect><rect x="416.78" y="398.49" width="33.12" height="0.25" style="fill:#ebebeb"></rect><rect x="322.53" y="401.21" width="8.69" height="0.25" style="fill:#ebebeb"></rect><rect x="396.59" y="389.21" width="19.19" height="0.25" style="fill:#ebebeb"></rect><rect x="52.46" y="390.89" width="43.19" height="0.25" style="fill:#ebebeb"></rect><rect x="104.56" y="390.89" width="6.33" height="0.25" style="fill:#ebebeb"></rect><rect x="131.47" y="395.11" width="93.68" height="0.25" style="fill:#ebebeb"></rect><path d="M237,337.8H43.91a5.71,5.71,0,0,1-5.7-5.71V60.66A5.71,5.71,0,0,1,43.91,55H237a5.71,5.71,0,0,1,5.71,5.71V332.09A5.71,5.71,0,0,1,237,337.8ZM43.91,55.2a5.46,5.46,0,0,0-5.45,5.46V332.09a5.46,5.46,0,0,0,5.45,5.46H237a5.47,5.47,0,0,0,5.46-5.46V60.66A5.47,5.47,0,0,0,237,55.2Z" style="fill:#ebebeb"></path><path d="M453.31,337.8H260.21a5.72,5.72,0,0,1-5.71-5.71V60.66A5.72,5.72,0,0,1,260.21,55h193.1A5.71,5.71,0,0,1,459,60.66V332.09A5.71,5.71,0,0,1,453.31,337.8ZM260.21,55.2a5.47,5.47,0,0,0-5.46,5.46V332.09a5.47,5.47,0,0,0,5.46,5.46h193.1a5.47,5.47,0,0,0,5.46-5.46V60.66a5.47,5.47,0,0,0-5.46-5.46Z" style="fill:#ebebeb"></path><rect x="337.38" y="83.63" width="112.62" height="124.62" style="fill:#e9e9e9"></rect><rect x="342.33" y="88.57" width="103" height="115" style="fill:#f4f4f4"></rect><polygon points="371.44 88.56 342.33 197.59 342.33 138.56 355.65 88.56 371.44 88.56" style="fill:#fff"></polygon><polygon points="384.45 88.56 353.75 203.56 347.96 203.56 378.66 88.56 384.45 88.56" style="fill:#fff"></polygon><polygon points="445.33 119.92 445.33 178.96 438.81 203.56 423.02 203.56 445.33 119.92" style="fill:#fff"></polygon><rect x="391.69" y="83.63" width="4" height="124.62" style="fill:#e9e9e9"></rect><rect x="339.33" y="108.91" width="108.5" height="4" style="fill:#e9e9e9"></rect><path d="M353.72,222.05l7.13,21.64a5,5,0,0,1-.85,4.7l-2,2.47-6.27,7.79-1.2,1.49a3.95,3.95,0,0,1-6.38-4.64l.82-1.24,3.21-4.89a5,5,0,0,0,.57-4.31l-6.49-19.71Z" style="fill:#e0e0e0"></path><rect x="341.26" y="222.31" width="13.85" height="4.58" transform="translate(-52.79 120.21) rotate(-18.23)" style="fill:#f0f0f0"></rect><path d="M360,241.07l.87,2.62a5,5,0,0,1-.85,4.7l-2,2.47-2.44-7.4Z" style="fill:#f0f0f0"></path><path d="M351.75,258.65l-1.2,1.49a3.95,3.95,0,0,1-6.38-4.64l.82-1.24Z" style="fill:#f0f0f0"></path><path d="M384.17,227.21l7.91,21.37a5,5,0,0,1-.68,4.73l-1.89,2.53-6,8-1.14,1.54a4,4,0,0,1-5.34.95,3.89,3.89,0,0,1-1.53-1.93,3.94,3.94,0,0,1,.32-3.43l.77-1.27,3-5a5,5,0,0,0,.42-4.33l-7.2-19.46Z" style="fill:#e0e0e0"></path><rect x="371.81" y="227.67" width="13.85" height="4.58" transform="translate(-56.28 145.79) rotate(-20.31)" style="fill:#f0f0f0"></rect><path d="M391.12,246l1,2.59a5,5,0,0,1-.68,4.73l-1.89,2.53-2.7-7.3Z" style="fill:#f0f0f0"></path><path d="M383.53,263.85l-1.14,1.54a4,4,0,0,1-5.34.95,3.89,3.89,0,0,1-1.53-1.93,3.94,3.94,0,0,1,.32-3.43l.77-1.27Z" style="fill:#f0f0f0"></path><path d="M413.21,227.68,421.32,249a5.05,5.05,0,0,1-.64,4.74l-1.86,2.55-5.91,8.07-1.13,1.54a3.95,3.95,0,0,1-6.88-.91,4,4,0,0,1,.3-3.44l.75-1.27,3-5a5,5,0,0,0,.38-4.33l-7.38-19.39Z" style="fill:#e0e0e0"></path><rect x="400.88" y="228.19" width="13.85" height="4.58" transform="translate(-55.31 160.12) rotate(-20.83)" style="fill:#f0f0f0"></rect><path d="M420.34,246.4l1,2.57a5.05,5.05,0,0,1-.64,4.74l-1.86,2.55L416.05,249Z" style="fill:#f0f0f0"></path><path d="M412.91,264.33l-1.13,1.54a3.95,3.95,0,0,1-6.88-.91,4,4,0,0,1,.3-3.44l.75-1.27Z" style="fill:#f0f0f0"></path><path d="M437.75,222.13l8.31,21.22a5.05,5.05,0,0,1-.6,4.74l-1.84,2.57-5.83,8.12-1.11,1.56a4,4,0,0,1-6.63-4.29l.75-1.28,2.94-5.06a5,5,0,0,0,.33-4.34l-7.56-19.32Z" style="fill:#e0e0e0"></path><rect x="425.44" y="222.69" width="13.85" height="4.58" transform="translate(-52.26 173.04) rotate(-21.37)" style="fill:#f0f0f0"></rect><path d="M445.05,240.78l1,2.57a5.05,5.05,0,0,1-.6,4.74l-1.84,2.57-2.83-7.25Z" style="fill:#f0f0f0"></path><path d="M437.79,258.78l-1.11,1.56a4,4,0,0,1-6.63-4.29l.75-1.28Z" style="fill:#f0f0f0"></path><path d="M338.55,215.35s60.44,24.13,111.44,0" style="fill:none;stroke:#e0e0e0;stroke-miterlimit:10;stroke-width:2px"></path><path d="M341.06,215.35a2.51,2.51,0,1,1-2.51-2.51A2.51,2.51,0,0,1,341.06,215.35Z" style="fill:#e0e0e0"></path><path d="M452,215.27a2.51,2.51,0,1,1-2.51-2.51A2.51,2.51,0,0,1,452,215.27Z" style="fill:#e0e0e0"></path><rect x="49.38" y="83.63" width="112.62" height="124.62" style="fill:#e9e9e9"></rect><rect x="54.33" y="88.57" width="103" height="115" style="fill:#f4f4f4"></rect><polygon points="83.44 88.56 54.33 197.59 54.33 138.56 67.65 88.56 83.44 88.56" style="fill:#fff"></polygon><polygon points="96.45 88.56 65.75 203.56 59.96 203.56 90.66 88.56 96.45 88.56" style="fill:#fff"></polygon><polygon points="157.33 119.92 157.33 178.96 150.81 203.56 135.02 203.56 157.33 119.92" style="fill:#fff"></polygon><rect x="103.69" y="83.63" width="4" height="124.62" style="fill:#e9e9e9"></rect><rect x="51.33" y="108.91" width="108.5" height="4" style="fill:#e9e9e9"></rect><path d="M65.72,222.05l7.13,21.64a5,5,0,0,1-.85,4.7l-2,2.47-6.27,7.79-1.2,1.49a3.95,3.95,0,0,1-6.38-4.64l.82-1.24,3.21-4.89a5,5,0,0,0,.57-4.31l-6.49-19.71Z" style="fill:#e0e0e0"></path><rect x="53.26" y="222.31" width="13.85" height="4.58" transform="translate(-67.25 30.1) rotate(-18.23)" style="fill:#f0f0f0"></rect><path d="M72,241.07l.87,2.62a5,5,0,0,1-.85,4.7l-2,2.47-2.44-7.4Z" style="fill:#f0f0f0"></path><path d="M63.75,258.65l-1.2,1.49a3.95,3.95,0,0,1-6.38-4.64l.82-1.24Z" style="fill:#f0f0f0"></path><path d="M96.17,227.21l7.91,21.37a5,5,0,0,1-.68,4.73l-1.89,2.53-6,8-1.14,1.54a4,4,0,0,1-5.34.95,3.89,3.89,0,0,1-1.53-1.93,3.94,3.94,0,0,1,.32-3.43l.77-1.27,3-5a5,5,0,0,0,.42-4.33l-7.2-19.46Z" style="fill:#e0e0e0"></path><rect x="83.81" y="227.67" width="13.85" height="4.58" transform="translate(-74.19 45.8) rotate(-20.31)" style="fill:#f0f0f0"></rect><path d="M103.12,246l1,2.59a5,5,0,0,1-.68,4.73l-1.89,2.53-2.7-7.3Z" style="fill:#f0f0f0"></path><path d="M95.53,263.85l-1.14,1.54a4,4,0,0,1-5.34.95,3.89,3.89,0,0,1-1.53-1.93,3.94,3.94,0,0,1,.32-3.43l.77-1.27Z" style="fill:#f0f0f0"></path><path d="M125.21,227.68,133.32,249a5.05,5.05,0,0,1-.64,4.74l-1.86,2.55-5.91,8.07-1.13,1.54a3.95,3.95,0,0,1-6.88-.91,4,4,0,0,1,.3-3.44l.75-1.27,3-5a5,5,0,0,0,.38-4.33l-7.38-19.39Z" style="fill:#e0e0e0"></path><rect x="112.88" y="228.19" width="13.85" height="4.58" transform="translate(-74.14 57.68) rotate(-20.83)" style="fill:#f0f0f0"></rect><path d="M132.34,246.4l1,2.57a5.05,5.05,0,0,1-.64,4.74l-1.86,2.55L128.05,249Z" style="fill:#f0f0f0"></path><path d="M124.91,264.33l-1.13,1.54a3.95,3.95,0,0,1-6.88-.91,4,4,0,0,1,.3-3.44l.75-1.27Z" style="fill:#f0f0f0"></path><path d="M149.75,222.13l8.31,21.22a5.05,5.05,0,0,1-.6,4.74l-1.84,2.57-5.83,8.12-1.11,1.56a4,4,0,0,1-6.63-4.29l.75-1.28,2.94-5.06a5,5,0,0,0,.33-4.34l-7.56-19.32Z" style="fill:#e0e0e0"></path><rect x="137.44" y="222.69" width="13.85" height="4.58" transform="translate(-72.06 68.08) rotate(-21.37)" style="fill:#f0f0f0"></rect><path d="M157.05,240.78l1,2.57a5.05,5.05,0,0,1-.6,4.74l-1.84,2.57-2.83-7.25Z" style="fill:#f0f0f0"></path><path d="M149.79,258.78l-1.11,1.56a4,4,0,0,1-6.63-4.29l.75-1.28Z" style="fill:#f0f0f0"></path><path d="M50.55,215.35s60.44,24.13,111.44,0" style="fill:none;stroke:#e0e0e0;stroke-miterlimit:10;stroke-width:2px"></path><path d="M53.06,215.35a2.51,2.51,0,1,1-2.51-2.51A2.51,2.51,0,0,1,53.06,215.35Z" style="fill:#e0e0e0"></path><path d="M164,215.27a2.51,2.51,0,1,1-2.51-2.51A2.51,2.51,0,0,1,164,215.27Z" style="fill:#e0e0e0"></path><path d="M288.65,106.22c1.61-2.49-4.46-8.54-4.5-11s.51-1.13,1.36-5.47-4.69-2.25-7.62-6.4.84-2.37-1.12-5.18-8.7-.56-10.5-2-.16-4.49-4-7-9.26,3.19-12.69,2c-3.93-1.4-3.37-3.93-6.46-2.73s-6.16,5.81-12.61,6.1-8.69,1.54-8.69,4.76-.29,5.51-6.24,9.78-3.3,9.85-.5,14.35-3.08,6.16-3.92,9.52,7,7.58,7.57,10.75-3.65,7.77,3.09,12.79,6.73,0,9.81,2.82,10.66,8.7,13.37,7.51,6.82-2.45,8.79-1.9,10.53.23,11.06-3.94,5.48-5.87,8.54-5.48,3.38-7.94,4-10.48,5-1.41,7.65-4.85-1.24-6.65-.86-8.29S287,108.71,288.65,106.22Zm-19.41,4.69c-3.13,1.48-2.8,3-3,6.43s-5.2,6.67-6.33,5.62-2.82.36-4.36,2.89-6.58,4.84-8.26,2-3.37-2.56-6.74-2.84a5.54,5.54,0,0,1-5.32-5.48c0-2.66,1.12-2-3.93-5.67s-4.21-5.49-2.8-7.41,2.24-3.76,1.4-7.6,1-6.23,4.67-6,2.43-4.09,4.12-5.57,2.43.75,6.35-.94c4.27-1.82,3.65,2.75,7.85,2.78s4.5-3.28,7-1.63.12,4.94,4.12,6.52,4.89,1.16,5.15,4-1.66,6.33,0,7.83S272.37,109.43,269.24,110.91Z" style="fill:#e0e0e0"></path><polygon points="245.07 72.75 246.2 75.03 248.72 75.4 246.9 77.17 247.33 79.69 245.07 78.5 242.82 79.69 243.25 77.17 241.42 75.4 243.94 75.03 245.07 72.75" style="fill:#f0f0f0"></polygon><polygon points="275.87 90.5 277 92.79 279.52 93.15 277.7 94.93 278.13 97.44 275.87 96.26 273.62 97.44 274.05 94.93 272.22 93.15 274.74 92.79 275.87 90.5" style="fill:#f0f0f0"></polygon><polygon points="269.21 120.91 270.34 123.19 272.86 123.56 271.04 125.34 271.47 127.85 269.21 126.66 266.96 127.85 267.39 125.34 265.56 123.56 268.08 123.19 269.21 120.91" style="fill:#f0f0f0"></polygon><polygon points="237.78 132.02 238.9 134.3 241.42 134.67 239.6 136.45 240.03 138.96 237.78 137.77 235.52 138.96 235.95 136.45 234.13 134.67 236.65 134.3 237.78 132.02" style="fill:#f0f0f0"></polygon><polygon points="220.44 104.16 221.57 106.45 224.09 106.81 222.26 108.59 222.69 111.1 220.44 109.92 218.18 111.1 218.61 108.59 216.79 106.81 219.31 106.45 220.44 104.16" style="fill:#f0f0f0"></polygon><path d="M264.83,83.27A1.87,1.87,0,1,1,263,81.4,1.87,1.87,0,0,1,264.83,83.27Z" style="fill:#f0f0f0"></path><path d="M231.19,85.87A1.87,1.87,0,1,1,229.32,84,1.87,1.87,0,0,1,231.19,85.87Z" style="fill:#f0f0f0"></path><path d="M227.82,124.38a1.87,1.87,0,1,1-1.86-1.87A1.87,1.87,0,0,1,227.82,124.38Z" style="fill:#f0f0f0"></path><path d="M257.45,137.81a1.87,1.87,0,1,1-1.87-1.87A1.87,1.87,0,0,1,257.45,137.81Z" style="fill:#f0f0f0"></path><path d="M278.3,112.94a1.87,1.87,0,1,1-1.86-1.87A1.87,1.87,0,0,1,278.3,112.94Z" style="fill:#f0f0f0"></path><path d="M252.56,134.05c6.71-2.1,12.8,11,17.55,11s5.33,0,3.64,3.69-22.67,14.77-22.85,12.66,3.23-4.76,1.26-9.23C248.93,144.9,247.54,135.62,252.56,134.05Z" style="fill:#f0f0f0"></path><path d="M249.14,135.88c3.92,5.84-6.93,15.4-5.62,20S245,161,241,160.39s-20.6-17.55-18.63-18.32,5.48,1.75,9.21-1.41C237.71,135.48,246.22,131.52,249.14,135.88Z" style="fill:#f0f0f0"></path><path d="M251.17,132.94s28.35,1.69,24-10.41-27,7.91-27,7.91c-4-7.79-25.19-20.75-25.31-7.93S244.18,133,244.18,133c-14,5.42-32.44,3.28-32.44,3.28l.66,3.45c18.33,2.51,35.08-5.67,35.08-5.67,7.38,6.21,32,8.29,32,8.29v-4C268.05,140.46,251.17,132.94,251.17,132.94Zm16.31-9.36c4.36,4.88-15.43,7.22-15.43,7.22S263.13,118.7,267.48,123.58Zm-36-1.16c1.35-3.07,13.32,8,13.32,8S228.85,128.43,231.48,122.42Z" style="fill:#f0f0f0"></path></g><g id="freepik--Shadow--inject-73"><ellipse id="freepik--path--inject-73" cx="250" cy="416.24" rx="193.89" ry="11.32" style="fill:#f5f5f5"></ellipse></g><g id="freepik--Gifts--inject-73"><path d="M402.62,381l-1-2.65c-13.46.62-15-4.46-15.11-6.07-.26-3,2.45-5.72,6-6.08,4.94-.51,8.23,3.92,9.91,6.83,2.54-3.06,7.46-5.59,11.16-5.59h0c2.84,0,4.85,1.34,5.53,4a4.48,4.48,0,0,1-1,4.35c-3.13,3.53-12.16,2.84-14.88,2.56Zm1.59-5.37c4.1.36,10,.09,11.72-1.8a1.42,1.42,0,0,0,.3-1.57c-.35-1.37-1.15-1.82-2.62-1.82h0C410.33,370.47,405.71,373.26,404.21,375.66Zm-10.91-6.47-.47,0c-2,.21-3.44,1.67-3.34,2.84.11,1.33,2.59,3.58,10.92,3.37C399.38,373.34,396.88,369.19,393.3,369.19Z" style="fill:#263238"></path><rect x="373.1" y="376.8" width="58.46" height="40.16" style="fill:#AF1740"></rect><rect x="373.1" y="390.68" width="58.46" height="26.28" style="opacity:0.2;isolation:isolate"></rect><rect x="412.06" y="376.8" width="4.75" height="40.16" style="fill:#263238"></rect><rect x="381.31" y="376.8" width="3.49" height="40.16" style="fill:#263238"></rect><rect x="373.1" y="376.8" width="23.23" height="40.16" style="opacity:0.2;isolation:isolate"></rect><path d="M428.22,390.89c-1.83.19-8,.65-10.06-1.74a3,3,0,0,1-.66-2.94,3.5,3.5,0,0,1,3.74-2.74h0a11.22,11.22,0,0,1,7.56,3.79c1.13-2,3.36-5,6.7-4.62,2.42.24,4.26,2.08,4.08,4.11-.09,1.09-1.11,4.53-10.22,4.11l-.68,1.79Zm-7-5.42h0c-1,0-1.54.32-1.77,1.25a1,1,0,0,0,.2,1.08c1.14,1.27,5.16,1.44,7.93,1.19A9.16,9.16,0,0,0,421.25,385.47Zm8.92,3.39c5.64.14,7.31-1.38,7.39-2.28s-.88-1.78-2.26-1.92l-.32,0C432.56,384.64,430.87,387.45,430.17,388.86Z" style="fill:#AF1740"></path><rect x="409.1" y="389.79" width="39.55" height="27.17" transform="translate(857.75 806.75) rotate(180)" style="fill:#AF1740"></rect><rect x="409.1" y="389.79" width="39.55" height="27.17" transform="translate(857.75 806.75) rotate(180)" style="fill:#fff;opacity:0.6000000000000001"></rect><rect x="409.1" y="399.18" width="39.55" height="17.78" transform="translate(857.75 816.14) rotate(180)" style="opacity:0.1;isolation:isolate"></rect><rect x="432.93" y="389.79" width="15.71" height="27.17" transform="translate(881.58 806.75) rotate(180)" style="fill:#fff;opacity:0.2"></rect><rect x="419.08" y="389.79" width="3.21" height="27.17" transform="translate(841.37 806.75) rotate(180)" style="fill:#AF1740"></rect><rect x="440.74" y="389.79" width="2.36" height="27.17" transform="translate(883.83 806.75) rotate(180)" style="fill:#AF1740"></rect></g><g id="freepik--Plant--inject-73"><polygon points="78.78 370.93 78.78 395.35 85.51 395.35 85.51 372.11 78.78 370.93" style="fill:#263238"></polygon><path d="M69.09,371.14s-15.12,11.93-12,12.3,12-6.15,12-6.15-1,11.47,4.86,10.89,11-11.16,11-11.16,2.74,12.53,6.27,11.16,3.53-10.77,3.53-10.77S99.82,388.26,103,386s-7.06-14.9-7.06-14.9L85.32,349.59Z" style="fill:#AF1740"></path><path d="M69.09,371.14s-15.12,11.93-12,12.3,12-6.15,12-6.15-1,11.47,4.86,10.89,11-11.16,11-11.16,2.74,12.53,6.27,11.16,3.53-10.77,3.53-10.77S99.82,388.26,103,386s-7.06-14.9-7.06-14.9L85.32,349.59Z" style="fill:#fff;opacity:0.5;isolation:isolate"></path><polygon points="64.68 392.15 99.35 392.15 96.54 416.96 67.48 416.96 64.68 392.15" style="fill:#AF1740"></polygon><path d="M69.09,361.74s-10.75,10.33-7.68,11.75,15.29-5.87,15.29-5.87-2.75,9.4,0,9.79S83,367.22,83,367.22s7.78,12.7,11.76,10.19,0-13.09,0-13.09,5.07,7.9,6.45,4.62-17.43-30.08-17.43-30.08Z" style="fill:#AF1740"></path><path d="M69.09,361.74s-10.75,10.33-7.68,11.75,15.29-5.87,15.29-5.87-2.75,9.4,0,9.79S83,367.22,83,367.22s7.78,12.7,11.76,10.19,0-13.09,0-13.09,5.07,7.9,6.45,4.62-17.43-30.08-17.43-30.08Z" style="fill:#fff;opacity:0.6000000000000001;isolation:isolate"></path><path d="M81.06,320s-3.52,9.7-6.71,17.2c-5.26,12.35-10.42,17.63-7.84,21.06s9.8-3.62,9.8-3.62-5.33,8.69-2.08,9.64,5.89-12,5.89-12,3.63,13,7.16,12,0-10.74,0-10.74,4.49,7.73,7,6.59,0-10.58,0-10.58,3.53,7.44,5.1,4.31S83.85,332.81,81.06,320Z" style="fill:#AF1740"></path><path d="M81.06,320s-3.52,9.7-6.71,17.2c-5.26,12.35-10.42,17.63-7.84,21.06s9.8-3.62,9.8-3.62-5.33,8.69-2.08,9.64,5.89-12,5.89-12,3.63,13,7.16,12,0-10.74,0-10.74,4.49,7.73,7,6.59,0-10.58,0-10.58,3.53,7.44,5.1,4.31S83.85,332.81,81.06,320Z" style="fill:#fff;opacity:0.7000000000000001;isolation:isolate"></path><polygon points="81.06 306.03 84.2 312.4 91.23 313.42 86.14 318.38 87.35 325.38 81.06 322.07 74.77 325.38 75.97 318.38 70.88 313.42 77.91 312.4 81.06 306.03" style="fill:#AF1740"></polygon><rect x="63.75" y="391.77" width="36.98" height="3.97" style="fill:#AF1740"></rect><rect x="63.75" y="391.77" width="36.98" height="3.97" style="fill:#fff;opacity:0.2;isolation:isolate"></rect></g><g id="freepik--character-2--inject-73"><path d="M334,123.35l8.08-13.06s2.74-1,3.29-2.22-.22-7.76-1-8.52-8.34-2.42-9.13-.92,2.45,8.86,2.72,9.51l-11,14.65Z" style="fill:#ebb376"></path><path d="M343.2,136.54s-5.57,7.34-3.95,12.6,1.19,13.71-2.63,16.61-4.63,5.8-3.83,8.83-2.64,7.26-5.27,6.07v3.63a5.61,5.61,0,0,0,6.72-1.33c3.05-3.32,2.51-5.24,2.9-8.91s4.12-4.46,4.12-4.46-2.21,2.28-2.27,4.46,1.45,11.59-.4,12.92c0,0,19.45,9.14,27.79,7.42S380.92,183,380.92,183s1.32-7.22-3.43-8.91-10.81-2.75-8.3-6.71,1.25-9.63,1.25-9.63-3.92-17.22-14.53-21.16S343.2,136.54,343.2,136.54Z" style="fill:#263238"></path><path d="M342.69,139c-2.86,3.52-3.84,7.82-3.84,12.27,0,3.78.22,9.36-2.56,12.36-1.21,1.3-3.18,1-4.69.5-5.4-1.66-8.57,3-8.57,3" style="fill:none;stroke:#263238;stroke-linecap:round;stroke-linejoin:round;stroke-width:0.5px"></path><path d="M367.92,168.1s-1.53,5.27,4.68,4.3,11.09-.59,11.62,5.22" style="fill:none;stroke:#263238;stroke-linecap:round;stroke-linejoin:round;stroke-width:0.5px"></path><path d="M348.59,176.39s-18.44-13.61-21.89-25.92,12.18-32.82,12.18-32.82l-8-5.22s-20,25.44-16.95,39.54S332.3,181,332.3,181Z" style="fill:#AF1740"></path><path d="M348.59,176.39,332.3,181s-.61-.59-1.6-1.65a90,90,0,0,1-12.63-16.91A39.56,39.56,0,0,1,313.89,152c-3.05-14.1,16.95-39.54,16.95-39.54l8,5.22s-15.62,20.51-12.18,32.82S348.59,176.39,348.59,176.39Z" style="opacity:0.30000000000000004;isolation:isolate"></path><polygon points="301.08 403.11 307.75 404.28 310.48 395.2 312.97 386.87 305.29 384.18 303.06 394.2 301.08 403.11" style="fill:#e4897b"></polygon><path d="M309.25,404.11c.11-.74-9-1.76-9-1.76s-6.55,4.67-12.17,5-3.17,4.09,2.86,5.15l14.9,2.63C310.12,415.87,308.08,411.75,309.25,404.11Z" style="fill:#263238"></path><path d="M294.32,403.47a.9.9,0,0,1,0-1,1,1,0,0,1,.59-.53,3.75,3.75,0,0,1,2.06.14c-.67-.52-1.23-1.11-1.17-1.59,0-.31.28-.53.73-.66a1.42,1.42,0,0,1,1.17.18c1.13.72,1.52,2.95,1.54,3.06a.45.45,0,0,1,0,.11h0s0,0,0,.06h0a.12.12,0,0,1-.06.06h0l-.08,0a14.12,14.12,0,0,1-3.27.54A1.94,1.94,0,0,1,294.32,403.47Zm.71-1.07a.47.47,0,0,0-.31.27c-.16.33-.06.45,0,.48.37.43,2.11.22,3.53-.11C297.25,402.64,295.74,402.14,295,402.4Zm1.59-2.1c-.14,0-.36.12-.38.24-.05.41,1.12,1.34,2.37,2.09a4,4,0,0,0-1.21-2.21.88.88,0,0,0-.51-.16A.84.84,0,0,0,296.62,400.3Z" style="fill:#AF1740"></path><polygon points="303.02 394.41 310.44 395.38 312.95 386.96 305.28 384.23 303.02 394.41" style="opacity:0.2;isolation:isolate"></polygon><polygon points="345.55 405.96 352.32 405.96 353.43 396.54 354.43 387.9 346.4 386.59 345.95 396.85 345.55 405.96" style="fill:#e4897b"></polygon><path d="M353.77,405.53c0-.75-9.18-.16-9.18-.16s-5.64,5.73-11.11,7-2.42,4.57,3.7,4.57h15.14C356.67,417,354,413.26,353.77,405.53Z" style="fill:#263238"></path><path d="M339,407.49a.87.87,0,0,1-.22-1,1,1,0,0,1,.49-.62,3.78,3.78,0,0,1,2-.22c-.74-.4-1.4-.88-1.42-1.36,0-.32.18-.57.6-.77a1.39,1.39,0,0,1,1.18,0c1.25.52,2,2.66,2.05,2.75a.25.25,0,0,1,0,.19l0,.05h0s0,.05-.09.06a11.42,11.42,0,0,1-3.79,1.16A1.24,1.24,0,0,1,339,407.49Zm.51-1.18a.5.5,0,0,0-.26.32c-.1.36,0,.46.06.49.43.35,2.11-.15,3.46-.72C341.7,406.17,340.13,405.93,339.47,406.31Zm1.2-2.34c-.13.06-.34.18-.33.31,0,.41,1.33,1.13,2.69,1.64a4,4,0,0,0-1.57-2,1,1,0,0,0-.37-.08A1.07,1.07,0,0,0,340.67,404Z" style="fill:#AF1740"></path><polygon points="345.95 397.06 353.43 396.73 354.43 387.99 346.4 386.64 345.95 397.06" style="opacity:0.2;isolation:isolate"></polygon><path d="M302.4,389.12l11,1.93c11-27.53,18.91-50.51,24.46-69.58,3-10.29,5.32-19.44,7.11-27.56l-.5,30V392h11.12c27-129,7.88-158.48,7.88-158.48L331.06,228a146.33,146.33,0,0,0-2.71,18.11l-1.46,10.7-12.65,65.32Z" style="fill:#AF1740"></path><path d="M302.4,389.12l11,1.93c11-27.53,18.91-50.51,24.46-69.58,3-10.29,5.32-19.44,7.11-27.56l-.5,30V392h11.12c27-129,7.88-158.48,7.88-158.48L331.06,228a146.33,146.33,0,0,0-2.71,18.11l-1.46,10.7-12.65,65.32Z" style="fill:#fff;opacity:0.6000000000000001;isolation:isolate"></path><polygon points="315.06 389.7 301.48 385.19 301.67 390.97 312.9 394.56 315.06 389.7" style="fill:#AF1740"></polygon><polygon points="356.99 390.33 342.83 388.25 344.01 393.91 355.7 395.49 356.99 390.33" style="fill:#AF1740"></polygon><polygon points="363.42 228.65 363.42 233.48 330.42 230.95 330.42 225.23 363.42 228.65" style="fill:#263238"></polygon><rect x="337.79" y="226.72" width="7.24" height="5.49" transform="translate(660.99 488.48) rotate(-174.88)" style="fill:#fff"></rect><rect x="352.12" y="226.65" width="1.64" height="8.35" transform="translate(693.65 479.35) rotate(-177.08)" style="fill:#AF1740"></rect><rect x="352.12" y="226.65" width="1.64" height="8.35" transform="translate(693.65 479.35) rotate(-177.08)" style="fill:#fff;opacity:0.6000000000000001;isolation:isolate"></rect><rect x="331.96" y="224.44" width="1.64" height="8.35" transform="translate(653.49 473.88) rotate(-177.08)" style="fill:#AF1740"></rect><rect x="331.96" y="224.44" width="1.64" height="8.35" transform="translate(653.49 473.88) rotate(-177.08)" style="fill:#fff;opacity:0.6000000000000001;isolation:isolate"></rect><path d="M330.28,225.81l33,2.85a117.34,117.34,0,0,1,3.51-24.24c.79-3.16,1.78-6.69,3.05-10.77.68-2.18,1.43-4.52,2.27-7,.63-1.91,1.31-3.94,2.06-6.08a98,98,0,0,0-13.7-3.31,105.2,105.2,0,0,0-14.82-1.56c-6.42,0-13.8.67-13.8.67s-1.05.25-1.71,7.06C329.55,189.78,329,202.56,330.28,225.81Z" style="fill:#AF1740"></path><path d="M374.18,180.53c-.23.65-.45,1.3-.67,1.93-.49,1.44-.95,2.82-1.39,4.15-.84,2.52-1.59,4.86-2.27,7-.36,1.16-.7,2.27-1,3.34-.81,2.71-1.47,5.17-2,7.43a117.34,117.34,0,0,0-3.51,24.24l-33-2.85c-1.32-23.25-.73-36-.13-42.42.66-6.81,1.71-7.06,1.71-7.06s7.38-.72,13.8-.67c3.44.12,6.87.4,10.27.86,1.52.2,3,.43,4.55.7a97.13,97.13,0,0,1,12.59,3Z" style="opacity:0.30000000000000004;isolation:isolate"></path><path d="M348.38,183c8.14-1,10.58-4.52,10.58-4.52-5.16-4.87-.87-13.3-.87-13.3L348.3,167a30.63,30.63,0,0,1,.38,4.13c.07,5.94-2.62,6-2.62,6C344.35,180.3,348.38,183,348.38,183Z" style="fill:#ebb376"></path><path d="M348.3,167a30.63,30.63,0,0,1,.38,4.13c6.61,0,9.41-6,9.41-6Z" style="opacity:0.2;isolation:isolate"></path><path d="M353.71,139.58c-8.51-.47-11.5,3.94-12.61,12.67-1.38,10.92.63,18.84,11.4,17.08C367.13,167,367.84,140.35,353.71,139.58Z" style="fill:#ebb376"></path><path d="M346.63,152.08a17.81,17.81,0,0,1-2.67,3.39,2.35,2.35,0,0,0,2.19,1.09Z" style="fill:#d58745"></path><path d="M351.88,151.67c-.06.7.28,1.29.74,1.33s.89-.5.95-1.2-.28-1.29-.75-1.33S351.93,151,351.88,151.67Z" style="fill:#263238"></path><path d="M353,150.52l-1.47-.72S352.2,151.14,353,150.52Z" style="fill:#263238"></path><path d="M343.21,150.84c0,.7.28,1.3.74,1.33s.89-.5.95-1.19-.28-1.3-.75-1.33S343.26,150.15,343.21,150.84Z" style="fill:#263238"></path><path d="M344.34,149.69l-1.47-.71S343.53,150.32,344.34,149.69Z" style="fill:#263238"></path><path d="M352.29,145.8a4.45,4.45,0,0,1,3.62,1.48" style="fill:none;stroke:#263238;stroke-linecap:round;stroke-linejoin:round;stroke-width:0.7246800000000001px"></path><path d="M346.12,145.1a4,4,0,0,0-3.43.51" style="fill:none;stroke:#263238;stroke-linecap:round;stroke-linejoin:round;stroke-width:0.7246800000000001px"></path><path d="M347.21,160a20.79,20.79,0,0,1,.83,3c.19,0,.37,0,.55,0,2.49-.11,3.61-1,4.09-1.92a3.18,3.18,0,0,0,.33-1.49,3.24,3.24,0,0,0-.11-.86,11.71,11.71,0,0,1-4.84,1.23C347.54,160,347.21,160,347.21,160Z" style="fill:#263238"></path><path d="M348.06,159.92l.27.88c2.34-.11,4-.5,4.68-1.25a3.24,3.24,0,0,0-.11-.86A11.71,11.71,0,0,1,348.06,159.92Z" style="fill:#fff"></path><path d="M348.59,163c2.49-.11,3.61-1,4.09-1.92a8.08,8.08,0,0,0-2.74.67A3.06,3.06,0,0,0,348.59,163Z" style="fill:#de5753"></path><path d="M362.22,154.43s-3.59-7.21-2.69-12.58c0,0-16.49-7.81-18.26,9.26,0,0-.82-15.29,13.83-14.83s13.42,21.87,5.51,27.83C360.61,164.11,364.45,158.94,362.22,154.43Z" style="fill:#263238"></path><path d="M360.74,156.15a3.73,3.73,0,0,1,4.2-3.19c2.62.43,3.58,5.92-3.05,6.86C360.94,160,360.46,159,360.74,156.15Z" style="fill:#ebb376"></path><path d="M359.53,141.85s-9-1.68-13.41,1.49c0,0,4.37-5.5,13.83-2.63Z" style="fill:#263238"></path><path d="M337.81,321.47c3-10.29,5.32-19.44,7.11-27.56a253.89,253.89,0,0,0-2.09-28.74S338.09,302.24,337.81,321.47Z" style="opacity:0.2;isolation:isolate"></path><path d="M347.77,134s8.73-13.12,22.69-7.37c9,3.73,11.71,16,6.49,27.46l-2-.09s.67-3.06-.29-3.58-4,3.89-4,3.89S367,141,347.77,134Z" style="fill:#AF1740"></path><path d="M373.15,154.79a2.8,2.8,0,1,0,3.69-1.45A2.79,2.79,0,0,0,373.15,154.79Z" style="fill:#AF1740"></path><path d="M373.15,154.79a2.8,2.8,0,1,0,3.69-1.45A2.79,2.79,0,0,0,373.15,154.79Z" style="fill:#fff;opacity:0.7000000000000001"></path><path d="M370.44,157.7s-16.87-30.06-27.24-21.16a4.21,4.21,0,0,1,2.1-3.93c6.57-3.92,16.15,2,25.57,18.81C373.65,156.37,370.44,157.7,370.44,157.7Z" style="fill:#AF1740"></path><path d="M370.44,157.7s-16.87-30.06-27.24-21.16a4.21,4.21,0,0,1,2.1-3.93c6.57-3.92,16.15,2,25.57,18.81C373.65,156.37,370.44,157.7,370.44,157.7Z" style="fill:#fff;opacity:0.7000000000000001"></path><polygon points="329.8 113.69 331.5 110.65 340.62 117.1 338.3 119.26 329.8 113.69" style="fill:#AF1740"></polygon><path d="M347.64,75.34l-1.12-2.09c-11.07,1.93-12.86-2.11-13.14-3.43-.53-2.45,1.43-5,4.35-5.67,4-.94,7.2,2.2,8.89,4.43,1.79-2.8,5.57-5.58,8.63-6h0a4.44,4.44,0,0,1,5,2.93,3.91,3.91,0,0,1-.33,3.79c-2.22,3.25-9.76,3.68-12,3.73Zm.73-4.79c3.42-.13,8.33-.89,9.51-2.63a1.43,1.43,0,0,0,.07-1.47,2,2,0,0,0-2.38-1.36h0C352.86,65.43,349.35,68.41,348.37,70.55Zm-9.69-4-.39.07c-1.66.38-2.67,1.74-2.46,2.7s2.52,2.69,9.39,1.64C344.15,69.32,341.64,66.14,338.68,66.52Z" style="fill:#AF1740"></path><g style="opacity:0.2;isolation:isolate"><path d="M347.64,75.34l-1.12-2.09c-11.07,1.93-12.86-2.11-13.14-3.43-.53-2.45,1.43-5,4.35-5.67,4-.94,7.2,2.2,8.89,4.43,1.79-2.8,5.57-5.58,8.63-6h0a4.44,4.44,0,0,1,5,2.93,3.91,3.91,0,0,1-.33,3.79c-2.22,3.25-9.76,3.68-12,3.73Zm.73-4.79c3.42-.13,8.33-.89,9.51-2.63a1.43,1.43,0,0,0,.07-1.47,2,2,0,0,0-2.38-1.36h0C352.86,65.43,349.35,68.41,348.37,70.55Zm-9.69-4-.39.07c-1.66.38-2.67,1.74-2.46,2.7s2.52,2.69,9.39,1.64C344.15,69.32,341.64,66.14,338.68,66.52Z"></path></g><rect x="324.69" y="71.79" width="48.76" height="33.5" transform="matrix(0.99, -0.13, 0.13, 0.99, -8.38, 44.74)" style="fill:#AF1740"></rect><rect x="324.69" y="71.79" width="48.76" height="33.5" transform="matrix(0.99, -0.13, 0.13, 0.99, -8.38, 44.74)" style="fill:#fff;opacity:0.6000000000000001"></rect><rect x="325.42" y="83.32" width="48.76" height="21.92" transform="matrix(0.99, -0.13, 0.13, 0.99, -9.1, 44.87)" style="opacity:0.2;isolation:isolate"></rect><rect x="324.81" y="73.65" width="19.37" height="33.5" transform="translate(-8.73 42.91) rotate(-7.25)" style="opacity:0.2;isolation:isolate"></rect><g style="opacity:0.30000000000000004"><polygon points="345.28 98.56 345.56 100.77 348.24 105.54 349.14 105.42 345.28 98.56" style="fill:#fff"></polygon><polygon points="343.47 84.31 343.75 86.52 354.04 104.8 354.94 104.69 343.47 84.31" style="fill:#fff"></polygon><polygon points="360.73 103.95 342.98 72.42 342.09 72.53 359.83 104.06 360.73 103.95" style="fill:#fff"></polygon><polygon points="366.52 103.21 348.77 71.68 347.88 71.79 365.62 103.33 366.52 103.21" style="fill:#fff"></polygon><polygon points="372.31 102.48 354.56 70.94 353.67 71.06 371.41 102.59 372.31 102.48" style="fill:#fff"></polygon><polygon points="359.46 70.32 374.9 98.37 374.61 96.14 360.35 70.21 359.46 70.32" style="fill:#fff"></polygon><polygon points="365.25 69.58 373.08 84.07 372.8 81.86 366.14 69.47 365.25 69.58" style="fill:#fff"></polygon></g><g style="opacity:0.2"><polygon points="324.41 87.64 324.69 89.84 331.21 107.7 331.72 107.64 324.41 87.64" style="fill:#fff"></polygon><polygon points="323.17 74.94 322.81 74.98 322.88 75.59 334.45 107.29 334.96 107.23 323.17 74.94" style="fill:#fff"></polygon><polygon points="338.2 106.81 326.41 74.52 325.91 74.59 337.69 106.88 338.2 106.81" style="fill:#fff"></polygon><polygon points="341.44 106.4 329.65 74.11 329.15 74.17 340.94 106.47 341.44 106.4" style="fill:#fff"></polygon><polygon points="344.68 105.99 332.89 73.7 332.39 73.76 344.18 106.06 344.68 105.99" style="fill:#fff"></polygon><polygon points="345.34 99 336.13 73.29 335.63 73.35 345.62 101.22 345.34 99" style="fill:#fff"></polygon><polygon points="343.52 84.69 339.37 72.88 338.87 72.94 343.8 86.91 343.52 84.69" style="fill:#fff"></polygon></g><rect x="357.1" y="70.52" width="3.96" height="33.5" transform="translate(-8.14 45.99) rotate(-7.25)" style="fill:#AF1740"></rect><rect x="331.67" y="73.82" width="2.91" height="33.5" transform="translate(-8.76 42.73) rotate(-7.24)" style="fill:#AF1740"></rect><path d="M370.48,114.94l-4.86-11.61s-3.18-.74-3.61-2-2.26-12.11-1.4-12.79,7-3.2,7.66-1.63,1.85,13.07,1.51,13.69l7.82,14.48Z" style="fill:#ebb376"></path><path d="M355.91,176.54s16.38-15.64,21.6-25.38-11.8-40.86-11.8-40.86l8-4.25s21.78,29.41,17.47,46.12-21.29,34.41-21.29,34.41Z" style="fill:#AF1740"></path><path d="M391.15,152.17c-1.75,6.76-5.56,13.68-9.49,19.52a123.08,123.08,0,0,1-8.15,10.77c-2.18,2.59-3.65,4.12-3.65,4.12l-3-2.16-10.95-7.88,0,0c.62-.59,16.46-15.81,21.58-25.36,5.22-9.75-11.8-40.86-11.8-40.86l8-4.25S395.46,135.46,391.15,152.17Z" style="opacity:0.30000000000000004;isolation:isolate"></path><polygon points="365.82 112.3 363.74 109.51 373.33 103.79 374.36 106.79 365.82 112.3" style="fill:#AF1740"></polygon><path d="M343.61,180.46a63.3,63.3,0,0,0-5.41,6.14,31.34,31.34,0,0,0-4.64,7.78c-2.37,6.44-.38,13.43-4.08,17.65s-7.52,2.38-7.52,2.38a10.32,10.32,0,0,0-3.83-4s7.52-1,7.25-5.93a38.66,38.66,0,0,1,5.7-21,29.08,29.08,0,0,1,8.58-8.64,24,24,0,0,1,3.53-2Z" style="fill:#AF1740"></path><path d="M343.61,180.46a63.3,63.3,0,0,0-5.41,6.14c-1.26-4.1.06-8.6,1.46-11.74a24,24,0,0,1,3.53-2Z" style="opacity:0.2;isolation:isolate"></path><path d="M358.09,171s-9.29,4.1-13.75.56-1.65,2.56-1.65,2.56-3.15,2.46-3.24,5.13,1.48,5.8,8.85,4.64,11.65-5.21,12.18-7.55a2.09,2.09,0,0,0-1.52-2.59S359.25,171.25,358.09,171Z" style="fill:#AF1740"></path><path d="M332.51,172.4a32.07,32.07,0,0,0-1.81,7,90,90,0,0,1-12.63-16.91A38.08,38.08,0,0,0,332.51,172.4Z" style="opacity:0.2;isolation:isolate"></path><path d="M381.66,171.69a123.08,123.08,0,0,1-8.15,10.77c-.49,1.44-.95,2.82-1.39,4.15-.84,2.52-1.59,4.86-2.27,7-.36,1.16-.7,2.27-1,3.34-3.47-4.08-2.3-11-2-12.57,0-.21.07-.32.07-.32,1.64-.4,3.89-2,6.14-3.91A101.15,101.15,0,0,0,381.66,171.69Z" style="opacity:0.2;isolation:isolate"></path></g><g id="freepik--character-1--inject-73"><g id="freepik--group--inject-73"><path d="M171.7,156.48s26,24.53,38,28.63,42.85,19.29,42.85,19.29l4.73-3.73c0-.21,3.46,2.46,3.5,4.31,0,1.34-3.4,12.57-4.11,12.56-3.3,0-6.95-7.56-6.95-7.56s-39.5-10.29-46.58-13.39-36.26-25.86-36.26-25.86Z" style="fill:#b97964"></path><path d="M165.94,150.59c6.26,2,32.69,27.81,39.94,31.34s26.52,8.65,26.52,8.65l-4.29,12.73s-32.18-6.49-38.7-11.38-24-19.53-24-19.53Z" style="fill:#AF1740"></path><path d="M232.4,190.58l-4.29,12.73s-32.18-6.49-38.7-11.38c-2.8-2.1-7.58-6-12.15-9.71-6.12-5-11.84-9.82-11.84-9.82l.33-13.68.19-8.13c6.26,2,32.69,27.81,39.94,31.34S232.4,190.58,232.4,190.58Z" style="fill:#fff;opacity:0.5"></path><path d="M177.26,182.22c-6.12-5-11.84-9.82-11.84-9.82l.33-13.68C169.24,162.78,176.11,171.92,177.26,182.22Z" style="opacity:0.2;isolation:isolate"></path><polygon points="164.57 409.28 172.94 410.16 174.51 392.12 166.14 391.23 164.57 409.28" style="fill:#b97964"></polygon><polygon points="122.82 408.67 130.93 408.67 131.6 389.89 123.48 389.89 122.82 408.67" style="fill:#b97964"></polygon><path d="M132.05,407.73H122.2a.71.71,0,0,0-.69.56l-1.6,7.22a1.2,1.2,0,0,0,.93,1.41,1.09,1.09,0,0,0,.26,0c3.19-.05,5.51-.25,9.51-.25,2.46,0,9.9.26,13.3.26s3.85-3.36,2.46-3.67c-6.25-1.36-11-3.25-13-5A2,2,0,0,0,132.05,407.73Z" style="fill:#263238"></path><path d="M132.61,408.85a.19.19,0,0,1-.15-.16.19.19,0,0,1,.1-.19c.29-.18,2.91-1.79,3.8-1.33a.57.57,0,0,1,.33.54,1.1,1.1,0,0,1-.4,1,2.41,2.41,0,0,1-1.56.41A9.51,9.51,0,0,1,132.61,408.85Zm.56-.26a3.93,3.93,0,0,0,2.88-.15.78.78,0,0,0,.26-.69c0-.15-.07-.23-.12-.23a.43.43,0,0,0-.25,0A7.7,7.7,0,0,0,133.17,408.59Z" style="fill:#AF1740"></path><path d="M132.56,408.9a.22.22,0,0,1-.1-.18c0-.11.21-2.44,1.15-3.21a1.08,1.08,0,0,1,.81-.25.64.64,0,0,1,.62.51c.17.86-1.45,2.64-2.29,3.09h-.09A.14.14,0,0,1,132.56,408.9Zm1.3-3.16a4.52,4.52,0,0,0-1,2.54c.83-.63,1.86-2,1.76-2.51,0,0,0-.2-.28-.2h-.09A.63.63,0,0,0,133.86,405.74Z" style="fill:#AF1740"></path><path d="M173.82,407.47H164a.71.71,0,0,0-.69.56l-1.6,7.22a1.21,1.21,0,0,0,.93,1.42,1.1,1.1,0,0,0,.26,0c3.19-.05,5.51-.24,9.51-.24,2.47,0,9.9.25,13.31.25s3.84-3.36,2.45-3.67c-6.25-1.36-10.95-3.25-12.95-5A2,2,0,0,0,173.82,407.47Z" style="fill:#263238"></path><path d="M174.38,408.6a.19.19,0,0,1-.14-.17.16.16,0,0,1,.09-.18c.29-.19,2.91-1.8,3.81-1.34a.6.6,0,0,1,.33.54,1.13,1.13,0,0,1-.41,1,2.43,2.43,0,0,1-1.55.42A10.93,10.93,0,0,1,174.38,408.6Zm.56-.27a3.91,3.91,0,0,0,2.89-.15.77.77,0,0,0,.25-.69c0-.15-.07-.22-.12-.22a.42.42,0,0,0-.25-.06A7.78,7.78,0,0,0,174.94,408.33Z" style="fill:#AF1740"></path><path d="M174.33,408.64a.21.21,0,0,1-.09-.18c0-.11.2-2.44,1.14-3.21a1.06,1.06,0,0,1,.82-.24.63.63,0,0,1,.62.5c.16.86-1.46,2.64-2.29,3.1h-.1A.17.17,0,0,1,174.33,408.64Zm1.3-3.16a4.59,4.59,0,0,0-1,2.54c.84-.63,1.87-2,1.76-2.51,0-.05,0-.19-.27-.19h-.1A.67.67,0,0,0,175.63,405.48Z" style="fill:#AF1740"></path><polygon points="166.14 391.23 174.51 392.12 173.69 401.42 165.33 400.54 166.14 391.23" style="opacity:0.2;isolation:isolate"></polygon><polygon points="123.48 389.9 131.6 389.9 131.25 399.58 123.13 399.58 123.48 389.9" style="opacity:0.2;isolation:isolate"></polygon><path d="M126.83,225.14h43c4.1,22.34,16.9,101.41,7.71,171.86L163,395.2s1.34-93.53-11.52-128.11c-1.48,18.51-3.24,38.2-4.76,48.67C143,341.55,135,397.9,135,397.9H120.14s3-53.94,4.43-79.28C126.11,291.11,126.77,230.79,126.83,225.14Z" style="fill:#263238"></path><path d="M151.49,267.1a115,115,0,0,1,4.81,18.61c1.2-16.46-3.61-33.93-3.61-33.93Z" style="opacity:0.2;isolation:isolate"></path><polygon points="179.24 400.4 161.21 397.71 161.76 392.72 180.52 395.18 179.24 400.4" style="fill:#AF1740"></polygon><polygon points="179.24 400.4 161.21 397.71 161.76 392.72 180.52 395.18 179.24 400.4" style="fill:#fff;opacity:0.6000000000000001;isolation:isolate"></polygon><polygon points="136.75 398.02 119.26 398.02 119.26 392.79 137.42 392.45 136.75 398.02" style="fill:#AF1740"></polygon><polygon points="136.75 398.02 119.26 398.02 119.26 392.79 137.42 392.45 136.75 398.02" style="fill:#fff;opacity:0.6000000000000001;isolation:isolate"></polygon><path d="M165.94,150.59s-27.38-1.33-47.77,3.82c0,0,7,62.32,6.61,88.32L175,241S173.05,177.21,165.94,150.59Z" style="fill:#AF1740"></path><path d="M124.78,242.73c0-.62,0-1.25,0-1.91,0-1,0-2,0-3,0-2.09-.09-4.34-.18-6.7,0-1-.08-2-.13-3-.1-2.13-.22-4.34-.35-6.6l-.18-3c-.14-2.25-.3-4.55-.47-6.87,0-.37,0-.75-.08-1.13,0-.63-.09-1.25-.13-1.88-.17-2.28-.35-4.58-.53-6.87-.09-1-.17-2-.25-3-.19-2.32-.39-4.61-.58-6.87-.09-1-.18-2-.28-3-.2-2.35-.42-4.65-.62-6.88-.1-1-.19-2-.29-3-.22-2.34-.44-4.59-.65-6.7,0-.06,0-.13,0-.19q-.15-1.56-.3-3c-.26-2.57-.5-4.89-.71-6.88-.12-1.11-.22-2.12-.32-3l-.52-4.8c20.39-5.15,47.77-3.82,47.77-3.82.32,1.21.63,2.49.94,3.85.21.95.41,1.93.61,2.94.43,2.11.82,4.34,1.2,6.68.16,1,.31,2,.46,3q.49,3.28.94,6.75c.12,1,.25,2,.37,3q.4,3.34.76,6.78c.1,1,.21,2,.31,3,.22,2.27.44,4.55.64,6.82.09,1,.17,2,.25,3q.3,3.47.55,6.84c.07,1,.15,2.05.22,3.05q.26,3.52.46,6.86c.07,1,.13,2.06.2,3.06.17,3,.33,5.82.46,8.42.06,1,.11,2.05.16,3,.16,3.17.28,5.89.37,8,0,1.19.08,2.21.11,3,.06,1.44.08,2.23.08,2.23Z" style="fill:#fff;opacity:0.6000000000000001"></path><g style="opacity:0.5"><path d="M167.49,157.38c-15.18,3.88-30.86,4.9-43.15,4.9-1.86,0-3.64,0-5.33-.06-.12-1.11-.22-2.12-.32-3,12.7.33,30.81-.3,48.19-4.77C167.09,155.39,167.29,156.37,167.49,157.38Z" style="fill:#fff"></path><path d="M169.15,167c-15.44,4.07-31.48,5.12-44,5.12q-2.69,0-5.13-.06-.15-1.56-.3-3c12.93.32,31.38-.36,49-5C168.85,165,169,166,169.15,167Z" style="fill:#fff"></path><path d="M170.46,176.8C154.87,181,138.61,182,126,182c-1.73,0-3.39,0-5,0-.1-1-.19-2-.29-3,13.07.31,31.71-.4,49.4-5.2C170.21,174.78,170.34,175.79,170.46,176.8Z" style="fill:#fff"></path><path d="M171.53,186.61c-15.68,4.22-32.05,5.32-44.77,5.32-1.69,0-3.33,0-4.88-.05-.09-1-.18-2-.28-3,13.15.31,31.89-.42,49.62-5.29C171.32,184.58,171.43,185.59,171.53,186.61Z" style="fill:#fff"></path><path d="M172.42,196.47c-15.69,4.24-32.1,5.34-44.85,5.34-1.69,0-3.31,0-4.86-.05-.09-1-.17-2-.25-3,13.19.31,32-.43,49.71-5.32C172.26,194.45,172.34,195.46,172.42,196.47Z" style="fill:#fff"></path><path d="M173.19,206.36c-15.68,4.23-32.07,5.33-44.82,5.33-1.71,0-3.35,0-4.92-.05,0-.37,0-.75-.08-1.13,0-.63-.09-1.25-.13-1.88,13.18.31,32-.43,49.73-5.32C173,204.34,173.12,205.36,173.19,206.36Z" style="fill:#fff"></path><path d="M173.85,216.28c-15.65,4.21-32,5.29-44.67,5.29-1.77,0-3.47,0-5.08-.06l-.18-3c13.16.32,32-.41,49.73-5.29C173.72,214.26,173.78,215.28,173.85,216.28Z" style="fill:#fff"></path><path d="M174.47,227.71a254,254,0,0,1-43.41,3.47c-2.28,0-4.45,0-6.48-.07,0-1-.08-2-.13-3,13,.28,31.6-.14,49.86-3.41C174.37,225.74,174.42,226.75,174.47,227.71Z" style="fill:#fff"></path><path d="M175,238.75a391.85,391.85,0,0,1-41.72,2.15c-3,0-5.86,0-8.44-.08,0-1,0-2,0-3a393.67,393.67,0,0,0,50.08-2.07C174.88,236.93,174.92,238,175,238.75Z" style="fill:#fff"></path></g><path d="M120,172.29c1.06,10.69,2.37,24.77,3.33,38.22,15.6-17.6,2.54-46.48,2.54-46.48Z" style="opacity:0.2;isolation:isolate"></path><path d="M133.73,151.65c4,3.59,13.63,2.26,13.63,2.26s6-1.65,4.77-3.54c-3.55-.59-5.28-2.25-6-4.37a10.48,10.48,0,0,1-.36-4.07,22.42,22.42,0,0,1,.3-2.27l-12-8.86C135.68,136.65,137.6,147.41,133.73,151.65Z" style="fill:#b97964"></path><path d="M136.88,136.44c.47,7.17,6.37,9.16,9.26,9.56a10.48,10.48,0,0,1-.36-4.07Z" style="opacity:0.2;isolation:isolate"></path><path d="M154.37,112.2s3.33,10.8-1.89,15.93-8.32-15.44-8.32-15.44Z" style="fill:#263238"></path><path d="M136.77,139.47a10.14,10.14,0,0,0,12.1,2.15,11.27,11.27,0,0,0,5.59-6.14,8.92,8.92,0,0,0,.37-1.14c1.88-7.19,1-19.14-6.78-22.5a11,11,0,0,0-14.46,5.66,10.84,10.84,0,0,0-.92,5C133,130.55,132.78,135.29,136.77,139.47Z" style="fill:#b97964"></path><path d="M144.81,125c-.05.65.32,1.19.76,1.19s.78-.51.79-1.17-.32-1.19-.75-1.19S144.83,124.36,144.81,125Z" style="fill:#263238"></path><path d="M152.2,125.17c0,.64.33,1.19.76,1.19s.78-.52.8-1.17S153.43,124,153,124,152.22,124.55,152.2,125.17Z" style="fill:#263238"></path><path d="M149.85,125.44a23.31,23.31,0,0,0,3,5.66,3.78,3.78,0,0,1-3.15.52Z" style="fill:#a24e3f"></path><path d="M142.57,122.58a.4.4,0,0,0,.37-.14,3.12,3.12,0,0,1,2.49-1.24.37.37,0,0,0,.41-.34.38.38,0,0,0-.34-.42h0a3.8,3.8,0,0,0-3.15,1.52.38.38,0,0,0,0,.54h0A.53.53,0,0,0,142.57,122.58Z" style="fill:#263238"></path><path d="M155.43,122.68a.36.36,0,0,0,.23,0,.37.37,0,0,0,.19-.5h0a3.81,3.81,0,0,0-2.72-2.21.38.38,0,0,0-.43.32h0a.39.39,0,0,0,.32.44h0a3.08,3.08,0,0,1,2.13,1.78A.36.36,0,0,0,155.43,122.68Z" style="fill:#263238"></path><path d="M138.77,112.63l.52,3.53a2.64,2.64,0,0,0-1.23,3.35c1.22,2.95-.34,7.61-2.57,9.52,0,0-.11-1.29-1.19-1s-.59,7.05,1.62,10.19c0,0-3.29-2.81-5.3-9.81-1.85-6.47-2.21-11.9-.94-14.46Z" style="fill:#263238"></path><path d="M129,129a7.65,7.65,0,0,0,4.3,4c2.52.91,4-1.31,3.44-3.79-.49-2.2-2.39-5.4-5-5.21S128,126.77,129,129Z" style="fill:#b97964"></path><path d="M154.37,112.2s-5-14.93-20-13c-9.69,1.26-15.44,12.38-13.37,24.84l2,.43s.15-3.12,1.21-3.38,2.91,4.8,2.91,4.8S134,114,154.37,112.2Z" style="fill:#AF1740"></path><path d="M124.47,125.73a2.81,2.81,0,1,1-3.19-2.35A2.82,2.82,0,0,1,124.47,125.73Z" style="fill:#AF1740"></path><path d="M124.47,125.73a2.81,2.81,0,1,1-3.19-2.35A2.82,2.82,0,0,1,124.47,125.73Z" style="fill:#fff;opacity:0.7000000000000001"></path><path d="M152.93,112.27s-3.19,6.84-4.54,5.84,1.19-2.68,1.19-2.68-7.74,4.66-8.8,4,4-3.19,4-3.19-6.76,5-8.34,3.14S146.51,110.77,152.93,112.27Z" style="fill:#263238"></path><path d="M129,129s20.84-24.55,26.37-11.48a4.9,4.9,0,0,0,.9-4.73c-2.63-6.81-17.29-5.21-28.77,10.25C123.46,128.55,129,129,129,129Z" style="fill:#AF1740"></path><path d="M129,129s20.84-24.55,26.37-11.48a4.9,4.9,0,0,0,.9-4.73c-2.63-6.81-17.29-5.21-28.77,10.25C123.46,128.55,129,129,129,129Z" style="fill:#fff;opacity:0.7000000000000001"></path><path d="M150.3,133.59a20.72,20.72,0,0,0-.79,2.85l-.52,0c-2.36-.11-3.41-.94-3.87-1.83a3.06,3.06,0,0,1-.31-1.41,3.3,3.3,0,0,1,.1-.82,11.16,11.16,0,0,0,4.59,1.18Z" style="fill:#263238"></path><path d="M149.5,133.54l-.26.83c-2.22-.11-3.77-.48-4.43-1.19a3.3,3.3,0,0,1,.1-.82A11.16,11.16,0,0,0,149.5,133.54Z" style="fill:#fff"></path><path d="M149,136.42c-2.36-.11-3.41-.94-3.87-1.83a7.63,7.63,0,0,1,2.59.64A2.82,2.82,0,0,1,149,136.42Z" style="fill:#de5753"></path><path d="M301.33,397.14c3.69,11.8-4.22,19.23-24.79,19.63-16.72.33-28.41-8.41-47.68-22.48-4.43-3.23-9.27-6.75-14.66-10.51-9.62-6.7-17.92-11.77-24.78-16.25-13.69-8.95-21.58-15.52-22.51-27.94-.35-4.74.63-16.49,2.57-31.66.59-4.63,1.27-9.57,2-14.73,1.8-12.29,4.05-25.8,6.6-39.15.88-4.64,1.8-9.26,2.75-13.8.4-1.95.82-3.89,1.23-5.8.1-.43.19-.86.29-1.28.19-.89.39-1.78.59-2.66,5.74-25.54,12.33-47,18.57-53.07,16.72-16.21,38-28.25,38-28.25,69.62-1.74,74.37,47.2,74.37,47.2s-43.25,36.83-48,40.79c-.66.55-1.45,2-2.34,4.29A173.72,173.72,0,0,0,258,259.79c-.91,3.55-1.84,7.33-2.76,11.22-2.94,12.57-5.76,26.25-7.59,36.58-.53,3-1,5.66-1.32,8-1.28,8.55,6.84,21.57,17.23,34.84C278.9,370,299.13,390.1,301.33,397.14Z" style="fill:#AF1740"></path><path d="M237.94,144.6c11-10.13,48,7.14,57,13.59s25.85,31.27,25.32,40.22-26.9,24.47-32.7,27.79-26.59-3-42.3-17.76S218,164.92,222.15,158.19,231.08,150.93,237.94,144.6Z" style="fill:#AF1740"></path><path d="M237.94,144.6c11-10.13,48,7.14,57,13.59s25.85,31.27,25.32,40.22-26.9,24.47-32.7,27.79-26.59-3-42.3-17.76S218,164.92,222.15,158.19,231.08,150.93,237.94,144.6Z" style="fill:#fff;opacity:0.5"></path><path d="M248.75,144.86c-1.84.14,9.49,31,15.3,39s45.62,17.44,50.9,16-11.61-32.36-21.36-39.32S260.89,144,248.75,144.86Z" style="opacity:0.2;isolation:isolate"></path><g style="opacity:0.5"><path d="M182.09,234.45c.43,2.38.87,4.74,1.3,7.11l-2.53-1.31C181.26,238.3,181.68,236.36,182.09,234.45Z" style="fill:#fff"></path><path d="M183.56,233.8l-1.18-.63c.19-.89.39-1.78.59-2.66C183.16,231.61,183.36,232.71,183.56,233.8Z" style="fill:#fff"></path><path d="M203.81,250.27c-.59-2.72-1.19-5.46-1.77-8.22l1.85.69c-.51-2.39-1-4.78-1.53-7.19l1.62.62q-1.17-5.46-2.31-11c-2.36,2.42-4.72,4.8-7.06,7.17l1.59.7-4.63,4.66c.6.28,1.21.55,1.81.81l-5.3,5.33c1.78.84,3.58,1.64,5.38,2.41q-1.16,4.45-2.33,8.91c1.6.69,3.21,1.34,4.83,2q1.17-4.45,2.33-8.92Q201,249.3,203.81,250.27Z" style="fill:#fff"></path><path d="M225.14,256.22c-.64-2.57-1.28-5.14-1.91-7.74l1.92.44q-.83-3.36-1.65-6.77l1.68.4q-1.26-5.15-2.5-10.36-3.65,3.93-7.27,7.8l1.66.48-4.76,5.08,1.89.56-5.46,5.81q2.79.89,5.63,1.67L212,262.51q2.5.69,5,1.32l2.34-8.92Q222.26,255.62,225.14,256.22Z" style="fill:#fff"></path><path d="M247.09,259.33l-2-7.25,2,.19c-.58-2.1-1.16-4.22-1.74-6.34l1.73.17q-1.32-4.82-2.63-9.71-3.72,4.26-7.42,8.45l1.72.26-4.87,5.5,2,.32-5.59,6.28c1.94.35,3.87.66,5.82.93L233.71,267c1.72.25,3.44.46,5.17.66l2.34-8.92C243.18,259,245.13,259.18,247.09,259.33Z" style="fill:#fff"></path><path d="M263.55,241.47A173.72,173.72,0,0,0,258,259.79c-1.92,0-3.84-.07-5.75-.15q2.84-3.37,5.65-6.79l-2,0c1.64-2,3.29-4,4.93-6q-.87,0-1.74,0C260.61,245.05,262.08,243.26,263.55,241.47Z" style="fill:#fff"></path></g><polygon points="207.56 197.41 207.99 201.57 211.66 203.58 207.83 205.27 207.06 209.38 204.26 206.27 200.11 206.8 202.22 203.18 200.43 199.4 204.52 200.28 207.56 197.41" style="fill:#fff;opacity:0.5"></polygon><polygon points="229.49 209.64 229.73 212.72 232.4 214.27 229.54 215.44 228.9 218.46 226.9 216.11 223.83 216.43 225.44 213.8 224.19 210.98 227.19 211.7 229.49 209.64" style="fill:#fff;opacity:0.5"></polygon><polygon points="221.46 181.93 221.26 185.01 223.68 186.93 220.69 187.68 219.61 190.57 217.97 187.96 214.89 187.84 216.86 185.47 216.03 182.5 218.89 183.64 221.46 181.93" style="fill:#fff;opacity:0.5"></polygon><polygon points="249.65 222.49 249.82 224.71 251.74 225.82 249.69 226.67 249.22 228.84 247.78 227.15 245.57 227.37 246.74 225.48 245.84 223.45 248 223.97 249.65 222.49" style="fill:#fff;opacity:0.5"></polygon><path d="M255.28,271c-1.34,5.72-2.65,11.66-3.85,17.4l-.27,1.27a2.38,2.38,0,0,1,0,.26c-.13.63-.26,1.25-.38,1.87,0,.13-.06.26-.08.39-.07.33-.14.66-.2,1-1.06,5.17-2,10.07-2.76,14.4-17.44-.29-55.95-2.33-76.18-14.39.44-3,.91-6.1,1.4-9.24.12-.74.24-1.48.35-2.23q.47-2.91,1-5.88.68-4.16,1.43-8.39c.06-.35.12-.7.19-1,.09-.53.18-1.07.28-1.61q1-5.37,2-10.75C192.84,260.48,226.79,273.48,255.28,271Z" style="fill:#fff;opacity:0.5"></path><path d="M217.58,287.49l-1.78-.33.79-.56a.51.51,0,0,0,.11-.7.5.5,0,0,0-.7-.12l-1.58,1.13-.86-.15,1.79-1.59a.5.5,0,1,0-.66-.76l-2.39,2.12-4.53-.83,3.82-2.64,3.34.11a.5.5,0,1,0,0-1l-2-.07.36-.26h2.1a.51.51,0,0,0,0-1h-.64l1.14-.79a.49.49,0,0,0,.13-.69.5.5,0,0,0-.7-.13l-1.49,1,.16-1a.51.51,0,0,0-.42-.57.51.51,0,0,0-.58.41l-.1.64a.52.52,0,0,0-.3-.36.51.51,0,0,0-.65.29l-1,2.52-3.86,2.68.81-4.49L211,279a.5.5,0,0,0,.24-.67.51.51,0,0,0-.67-.24l-2.4,1.14.17-1,1.48-1.48a.5.5,0,0,0-.71-.71l-.45.45.25-1.36a.5.5,0,1,0-1-.18l-.33,1.78-.56-.79a.51.51,0,0,0-.7-.11.5.5,0,0,0-.12.7l1.13,1.58-.15.86-1.59-1.8a.51.51,0,0,0-.71,0,.5.5,0,0,0,0,.71l2.11,2.39-.81,4.42-2.68-3.88.34-3.56a.5.5,0,0,0-.45-.55.5.5,0,0,0-.55.45l-.22,2.38-.58-.83.29-2.07a.52.52,0,0,0-.43-.57.5.5,0,0,0-.56.43l-.14,1-.63-.9a.5.5,0,0,0-.7-.13.51.51,0,0,0-.12.7l.5.73-.59-.19a.51.51,0,0,0-.63.32.52.52,0,0,0,.32.64l1.85.6.67,1-2.16-.77a.5.5,0,0,0-.64.3.5.5,0,0,0,.31.64l3.42,1.23h.05l2.56,3.7-4.7-.86-2-2.94a.5.5,0,1,0-.83.56l1.43,2.13-1.21-.22-1.26-1.67a.5.5,0,1,0-.8.61l.6.8-1.08-.2a.5.5,0,0,0-.18,1l.88.16-.55.28a.49.49,0,0,0-.22.67.48.48,0,0,0,.35.27.45.45,0,0,0,.32-.05l1.73-.87,1.5.27-2.33,1.72a.51.51,0,0,0,.21.9.55.55,0,0,0,.39-.09l3.09-2.28,4.41.8L201.26,289l-3.23-.48a.5.5,0,0,0-.57.42.47.47,0,0,0,.42.57l2.17.32-.93.65-2.07-.29a.51.51,0,0,0-.57.43.5.5,0,0,0,.43.56l1,.14-.9.63a.5.5,0,0,0-.13.69.48.48,0,0,0,.33.21.46.46,0,0,0,.37-.08l.74-.51-.2.59a.51.51,0,0,0,.33.64h.06a.5.5,0,0,0,.57-.33l.6-1.85,1-.68-.89,2.5a.5.5,0,0,0,.31.64l.08,0a.5.5,0,0,0,.56-.32l1.33-3.76s0,0,0,0l3.7-2.56-.86,4.74-3,2.38a.5.5,0,1,0,.62.79l2.16-1.69-.2,1.06-1.66,1.26a.49.49,0,0,0-.1.7.5.5,0,0,0,.7.1l.8-.6-.2,1.08a.5.5,0,0,0,1,.18l.16-.88.28.55a.5.5,0,0,0,.36.27.53.53,0,0,0,.32-.05.51.51,0,0,0,.22-.67l-.88-1.73.21-1.18,1.12,2.34a.51.51,0,0,0,.36.28.56.56,0,0,0,.31,0,.5.5,0,0,0,.23-.67L206,291.78s0,0,0,0l.83-4.54,2.69,3.88-.68,3.44a.49.49,0,0,0,.39.59h0a.5.5,0,0,0,.58-.4l.49-2.47.44.63V295a.5.5,0,0,0,.41.49h.09a.51.51,0,0,0,.51-.5v-.64l.79,1.14a.48.48,0,0,0,.33.21.5.5,0,0,0,.5-.78l-1-1.49.95.15a.5.5,0,0,0,.58-.41.53.53,0,0,0-.41-.58l-1.92-.31-.5-.72,2.39.14a.5.5,0,1,0,.07-1l-3.19-.19-2.62-3.79,4.58.83,2.47,2.68a.55.55,0,0,0,.28.15.49.49,0,0,0,.43-.12.5.5,0,0,0,0-.71l-1.57-1.7.45.08,1.49,1.48a.6.6,0,0,0,.26.14.51.51,0,0,0,.45-.14.5.5,0,0,0,0-.71l-.45-.45,1.36.25a.5.5,0,1,0,.18-1Zm-4.72-7.25-.13.81-.24.16Z" style="fill:#AF1740"></path><path d="M174,283.9l-.69-2.17c-.11.75-.23,1.49-.35,2.23l.08.24a.52.52,0,0,0,.63.33A.51.51,0,0,0,174,283.9Zm10.92-6.4-1.73-.56.86-.45a.5.5,0,0,0-.47-.89l-1.72.9-.83-.27,2-1.33a.5.5,0,0,0-.56-.84l-2.65,1.77-4.38-1.44,4.15-2.1,3.29.57a.5.5,0,0,0,.58-.4.51.51,0,0,0-.41-.59l-2-.34.4-.2,2.08.28a.5.5,0,0,0,.57-.43.51.51,0,0,0-.43-.56l-.63-.09,1.23-.62a.51.51,0,0,0,.23-.68.5.5,0,0,0-.68-.22l-1.62.82.29-.93a.52.52,0,0,0-.33-.63.51.51,0,0,0-.63.33l-.19.62a.5.5,0,0,0-.94-.19l-1.29,2.36-4.19,2.12,1.42-4.33,3.22-1a.49.49,0,0,0,.33-.63.51.51,0,0,0-.63-.33l-2.53.8.3-.94,1.67-1.26a.5.5,0,1,0-.61-.8l-.5.38.43-1.32a.5.5,0,1,0-.95-.31l-.57,1.73-.36-.68c-.1.54-.19,1.08-.28,1.61l.2.39-.27.83-.12-.17q-.75,4.23-1.43,8.39l2.07,4.1-1.14,3.31a.51.51,0,0,0,.31.64h0a.5.5,0,0,0,.63-.31l.82-2.39.35.69L177,284a.51.51,0,0,0,.34.54l.09,0a.5.5,0,0,0,.57-.43l.08-.63.63,1.24a.48.48,0,0,0,.29.25.46.46,0,0,0,.38,0,.5.5,0,0,0,.23-.67l-.82-1.62.92.29a.51.51,0,0,0,.63-.33A.51.51,0,0,0,180,282l-1.85-.58-.4-.78,2.35.47a.5.5,0,0,0,.59-.39.49.49,0,0,0-.39-.59l-3.12-.63-2.08-4.12,4.42,1.46,2.08,3a.47.47,0,0,0,.25.19.52.52,0,0,0,.45-.06.5.5,0,0,0,.12-.7l-1.32-1.9.44.14,1.27,1.67a.5.5,0,1,0,.8-.61l-.39-.5,1.32.43a.51.51,0,0,0,.64-.32A.52.52,0,0,0,184.87,277.5Zm-3.69-7.82-.24.78-.26.13Z" style="fill:#AF1740"></path><path d="M251.43,288.41a.49.49,0,0,0-.47.11l-1.45,1.29-.88-.06,1.62-1.77a.5.5,0,0,0,0-.71.5.5,0,0,0-.71,0l-2.15,2.35-4.6-.34,3.53-3,3.32-.23a.5.5,0,0,0,.47-.54.5.5,0,0,0-.54-.46l-2,.14.34-.3,2.09-.22a.5.5,0,0,0-.11-1l-.64.07,1.06-.91a.5.5,0,0,0-.66-.76l-1.38,1.19.06-1a.51.51,0,0,0-.47-.53.49.49,0,0,0-.53.47l0,.64a.5.5,0,0,0-.95,0l-.69,2.61-3.56,3.06.34-4.55,2.88-1.76a.49.49,0,0,0,.17-.69.5.5,0,0,0-.69-.16l-2.27,1.38.07-1,1.32-1.63a.51.51,0,0,0-.79-.63l-.39.49.1-1.38a.5.5,0,0,0-1-.08l-.14,1.82-.64-.73a.5.5,0,0,0-.75.67l1.29,1.45-.07.87-1.77-1.61a.5.5,0,0,0-.71,0,.51.51,0,0,0,0,.71l2.35,2.15-.33,4.48L238,284.85l0-3.58a.51.51,0,0,0-.51-.5.49.49,0,0,0-.49.51l0,2.39-.66-.77.07-2.09a.5.5,0,1,0-1,0l0,1-.71-.83a.51.51,0,0,0-.71-.05.49.49,0,0,0-.05.7l.58.68-.61-.13a.5.5,0,0,0-.59.39.49.49,0,0,0,.39.59l1.89.41.78.89-2.23-.54a.5.5,0,0,0-.24,1l3.53.86h.06l2.93,3.41-4.76-.36-2.27-2.72a.5.5,0,0,0-.77.65l1.65,2-1.23-.09-1.42-1.53a.5.5,0,0,0-.71,0,.5.5,0,0,0,0,.71l.68.73-1.09-.08a.5.5,0,0,0-.54.46.5.5,0,0,0,.47.54l.89.07-.52.33a.5.5,0,0,0,.23.92.43.43,0,0,0,.31-.08l1.63-1.05,1.52.11-2.13,2a.5.5,0,0,0,.3.87.51.51,0,0,0,.38-.13l2.83-2.6,4.47.33-3.63,3.14-3.27-.14a.51.51,0,0,0-.52.48.5.5,0,0,0,.48.53l2.2.09-.86.73-2.09-.07a.5.5,0,0,0-.52.49.5.5,0,0,0,.49.52l1,0-.83.72a.51.51,0,0,0-.06.71.53.53,0,0,0,.35.17.49.49,0,0,0,.36-.12l.68-.58-.13.6a.5.5,0,0,0,.39.6h.06a.5.5,0,0,0,.53-.4l.4-1.9.9-.77-.61,2.57a.5.5,0,0,0,.37.61H236a.49.49,0,0,0,.52-.38l.93-3.88s0,0,0,0l3.41-2.93-.35,4.8-2.78,2.69a.5.5,0,0,0,0,.71.5.5,0,0,0,.71,0l2-1.91-.08,1.08-1.52,1.42a.5.5,0,0,0,0,.71.51.51,0,0,0,.71,0l.73-.69-.09,1.1a.51.51,0,0,0,1,.07l.06-.89.34.52a.49.49,0,0,0,.38.23.48.48,0,0,0,.31-.08.5.5,0,0,0,.15-.7l-1.06-1.62.09-1.19,1.36,2.2a.52.52,0,0,0,.39.24.53.53,0,0,0,.3-.07.51.51,0,0,0,.17-.69l-2.06-3.35,0,0,.34-4.6,3.08,3.58-.31,3.48a.5.5,0,0,0,.45.55h0a.5.5,0,0,0,.54-.46l.23-2.51.5.58.23,2.09a.51.51,0,0,0,.46.45h.09a.5.5,0,0,0,.45-.55l-.07-.63.91,1a.51.51,0,0,0,.34.17.48.48,0,0,0,.36-.12.51.51,0,0,0,.06-.71l-1.19-1.37,1,.05a.5.5,0,0,0,.53-.47.52.52,0,0,0-.47-.53l-1.94-.11-.57-.67,2.39-.1a.51.51,0,0,0,.48-.53.5.5,0,0,0-.52-.48l-3.19.15-3-3.49,4.64.34,2.74,2.4a.51.51,0,0,0,.3.13h0c.06-.33.13-.66.2-1L249,290.78l.46,0,1.24,1c.12-.62.25-1.24.38-1.87l-.21,0,.26-.24Zm-4.18-5.07-.05.82-.21.19Z" style="fill:#AF1740"></path><path d="M189.42,367.53c-13.69-8.95-21.58-15.52-22.51-27.94-.35-4.74.63-16.49,2.57-31.66,7.47,3.81,16.13,7.48,22.05,7.63C202.12,315.85,196.89,350.8,189.42,367.53Z" style="fill:#fff;opacity:0.5"></path><path d="M276.54,416.77c-16.72.33-28.41-8.41-47.68-22.48,1.22-9.67,4.23-21.79,11.5-29.73C246.92,357.4,256,353,263.6,350.4c15.3,19.58,35.53,39.7,37.73,46.74C305,408.94,297.11,416.37,276.54,416.77Z" style="fill:#fff;opacity:0.5"></path><g style="clip-path:url(#freepik--clip-path--inject-73)"><path d="M269.38,147.37c-2,0-8.8,0-10.91-2.86a2.85,2.85,0,0,1-.46-3c.68-2,2.24-2.56,4.35-2.38h0a12,12,0,0,1,8,4.61c1.44-2.06,4.18-5.27,7.82-4.58,2.64.49,4.48,2.63,4.1,4.84-.21,1.19-1.65,4.84-11.63,3.51l-.91,1.89Zm-7.21-6.07h0c-1.09-.1-1.7-.06-2,.93-.24.71-.05.83.13,1.07,1.12,1.51,5.51,2.28,8.58,2.27A9.89,9.89,0,0,0,262.17,141.3Zm9.54,4c6.18.69,8.17-.83,8.34-1.81s-.8-2-2.31-2.32a2,2,0,0,0-.34,0C274.74,140.92,272.61,143.85,271.71,145.33Z" style="fill:#AF1740"></path><g style="opacity:0.2;isolation:isolate"><path d="M269.38,147.37c-2,0-8.8,0-10.91-2.86a2.85,2.85,0,0,1-.46-3c.68-2,2.24-2.56,4.35-2.38h0a12,12,0,0,1,8,4.61c1.44-2.06,4.18-5.27,7.82-4.58,2.64.49,4.48,2.63,4.1,4.84-.21,1.19-1.65,4.84-11.63,3.51l-.91,1.89Zm-7.21-6.07h0c-1.09-.1-1.7-.06-2,.93-.24.71-.05.83.13,1.07,1.12,1.51,5.51,2.28,8.58,2.27A9.89,9.89,0,0,0,262.17,141.3Zm9.54,4c6.18.69,8.17-.83,8.34-1.81s-.8-2-2.31-2.32a2,2,0,0,0-.34,0C274.74,140.92,272.61,143.85,271.71,145.33Z"></path></g><rect x="247.09" y="146.18" width="43.64" height="29.98" transform="translate(522.98 344.83) rotate(-175.07)" style="fill:#263238"></rect><rect x="247.09" y="146.18" width="43.64" height="29.98" transform="translate(522.98 344.83) rotate(-175.07)" style="fill:#fff;opacity:0.1"></rect><g style="opacity:0.4"><path d="M249.85,146.63c0,.44-.3.78-.59.75s-.5-.4-.46-.84.31-.77.6-.75S249.89,146.19,249.85,146.63Z" style="fill:#fff"></path><path d="M253.59,147c0,.44-.31.78-.6.75s-.49-.4-.45-.84.3-.77.59-.75S253.62,146.52,253.59,147Z" style="fill:#fff"></path><path d="M257.32,147.28c0,.44-.3.77-.59.75s-.49-.4-.46-.84.31-.78.6-.75S257.36,146.84,257.32,147.28Z" style="fill:#fff"></path><path d="M261.06,147.6c0,.44-.31.77-.59.75s-.5-.4-.46-.84.3-.78.59-.75S261.1,147.16,261.06,147.6Z" style="fill:#fff"></path><path d="M264.79,147.92c0,.44-.3.78-.59.75s-.49-.4-.45-.84.3-.77.59-.75S264.83,147.48,264.79,147.92Z" style="fill:#fff"></path><path d="M268.53,148.24c0,.44-.3.78-.59.75s-.5-.4-.46-.84.3-.77.59-.75S268.57,147.8,268.53,148.24Z" style="fill:#fff"></path><path d="M272.27,148.56c0,.44-.31.78-.6.75s-.49-.4-.45-.84.3-.77.59-.75S272.3,148.13,272.27,148.56Z" style="fill:#fff"></path><path d="M251.47,149.71c0,.44-.31.77-.6.75s-.49-.4-.45-.84.3-.78.59-.75S251.51,149.27,251.47,149.71Z" style="fill:#fff"></path><path d="M255.2,150c0,.44-.3.78-.59.75s-.49-.4-.46-.84.31-.77.6-.75S255.24,149.59,255.2,150Z" style="fill:#fff"></path><path d="M258.94,150.35c0,.44-.3.78-.59.75s-.5-.4-.46-.84.3-.77.59-.75S259,149.91,258.94,150.35Z" style="fill:#fff"></path><path d="M262.67,150.68c0,.43-.3.77-.59.75s-.49-.41-.45-.84.3-.78.59-.75S262.71,150.24,262.67,150.68Z" style="fill:#fff"></path><path d="M266.41,151c0,.44-.3.77-.59.75s-.5-.4-.46-.84.3-.78.59-.75S266.45,150.56,266.41,151Z" style="fill:#fff"></path><path d="M270.15,151.32c0,.44-.31.77-.6.75s-.49-.4-.45-.84.3-.78.59-.75S270.18,150.88,270.15,151.32Z" style="fill:#fff"></path><path d="M273.88,151.64c0,.44-.3.78-.59.75s-.49-.4-.46-.84.31-.77.6-.75S273.92,151.2,273.88,151.64Z" style="fill:#fff"></path><path d="M249.3,153c0,.44-.3.77-.59.75s-.5-.4-.46-.84.3-.78.59-.75S249.34,152.59,249.3,153Z" style="fill:#fff"></path><path d="M253,153.35c0,.44-.31.78-.6.75s-.49-.4-.45-.84.3-.77.59-.75S253.07,152.91,253,153.35Z" style="fill:#fff"></path><path d="M256.77,153.67c0,.44-.3.78-.59.75s-.5-.4-.46-.84.31-.77.6-.75S256.81,153.24,256.77,153.67Z" style="fill:#fff"></path><path d="M260.51,154c0,.44-.31.77-.6.75s-.49-.41-.45-.84.3-.78.59-.75S260.54,153.56,260.51,154Z" style="fill:#fff"></path><path d="M264.24,154.32c0,.44-.3.77-.59.75s-.49-.4-.46-.84.31-.78.6-.75S264.28,153.88,264.24,154.32Z" style="fill:#fff"></path><path d="M268,154.64c0,.44-.31.77-.59.75s-.5-.4-.46-.84.3-.78.59-.75S268,154.2,268,154.64Z" style="fill:#fff"></path><path d="M271.71,155c0,.44-.3.78-.59.75s-.49-.4-.45-.84.3-.77.59-.75S271.75,154.52,271.71,155Z" style="fill:#fff"></path><path d="M250.92,156.11c0,.44-.31.77-.6.75s-.49-.4-.45-.84.3-.78.59-.75S251,155.67,250.92,156.11Z" style="fill:#fff"></path><path d="M254.65,156.43c0,.44-.3.77-.59.75s-.49-.4-.46-.84.31-.78.6-.75S254.69,156,254.65,156.43Z" style="fill:#fff"></path><path d="M258.39,156.75c0,.44-.31.78-.6.75s-.49-.4-.45-.84.3-.77.59-.75S258.43,156.31,258.39,156.75Z" style="fill:#fff"></path><path d="M262.12,157.07c0,.44-.3.78-.59.75s-.49-.4-.46-.84.31-.77.6-.75S262.16,156.63,262.12,157.07Z" style="fill:#fff"></path><path d="M265.86,157.4c0,.43-.3.77-.59.74s-.5-.4-.46-.84.3-.77.59-.75S265.9,157,265.86,157.4Z" style="fill:#fff"></path><path d="M269.59,157.72c0,.44-.3.77-.59.75s-.49-.4-.45-.84.3-.78.59-.75S269.63,157.28,269.59,157.72Z" style="fill:#fff"></path><path d="M273.33,158c0,.44-.3.77-.59.75s-.5-.4-.46-.84.31-.78.59-.75S273.37,157.6,273.33,158Z" style="fill:#fff"></path><path d="M248.75,159.43c0,.44-.31.77-.59.75s-.5-.4-.46-.84.3-.78.59-.75S248.79,159,248.75,159.43Z" style="fill:#fff"></path><path d="M252.48,159.75c0,.44-.3.77-.59.75s-.49-.4-.45-.84.3-.78.59-.75S252.52,159.31,252.48,159.75Z" style="fill:#fff"></path><path d="M256.22,160.07c0,.44-.3.78-.59.75s-.5-.4-.46-.84.3-.77.59-.75S256.26,159.63,256.22,160.07Z" style="fill:#fff"></path><path d="M260,160.39c0,.44-.31.78-.6.75s-.49-.4-.45-.84.3-.77.59-.75S260,160,260,160.39Z" style="fill:#fff"></path><path d="M263.69,160.72c0,.43-.3.77-.59.75s-.5-.41-.46-.84.31-.78.6-.75S263.73,160.28,263.69,160.72Z" style="fill:#fff"></path><path d="M267.43,161c0,.44-.31.77-.6.75s-.49-.4-.45-.84.3-.78.59-.75S267.46,160.6,267.43,161Z" style="fill:#fff"></path><path d="M271.16,161.36c0,.44-.3.77-.59.75s-.49-.4-.46-.84.31-.78.6-.75S271.2,160.92,271.16,161.36Z" style="fill:#fff"></path><path d="M250.36,162.5c0,.44-.3.78-.59.75s-.49-.4-.45-.84.3-.77.59-.75S250.4,162.07,250.36,162.5Z" style="fill:#fff"></path><path d="M254.1,162.83c0,.44-.3.77-.59.75s-.5-.4-.46-.84.3-.78.59-.75S254.14,162.39,254.1,162.83Z" style="fill:#fff"></path><path d="M257.84,163.15c0,.44-.31.77-.6.75s-.49-.4-.45-.84.3-.78.59-.75S257.87,162.71,257.84,163.15Z" style="fill:#fff"></path><path d="M261.57,163.47c0,.44-.3.78-.59.75s-.49-.4-.46-.84.31-.77.6-.75S261.61,163,261.57,163.47Z" style="fill:#fff"></path><path d="M265.31,163.79c0,.44-.31.78-.6.75s-.49-.4-.45-.84.3-.77.59-.75S265.35,163.35,265.31,163.79Z" style="fill:#fff"></path><path d="M269,164.11c0,.44-.3.78-.59.75s-.49-.4-.46-.84.31-.77.6-.75S269.08,163.68,269,164.11Z" style="fill:#fff"></path><path d="M272.78,164.44c0,.44-.3.77-.59.75s-.5-.4-.46-.84.3-.78.59-.75S272.82,164,272.78,164.44Z" style="fill:#fff"></path><path d="M248.2,165.83c0,.43-.31.77-.6.75s-.49-.41-.45-.85.3-.77.59-.74S248.23,165.39,248.2,165.83Z" style="fill:#fff"></path><path d="M251.93,166.15c0,.44-.3.77-.59.75s-.49-.4-.46-.84.31-.78.6-.75S252,165.71,251.93,166.15Z" style="fill:#fff"></path><path d="M255.67,166.47c0,.44-.31.77-.59.75s-.5-.4-.46-.84.3-.78.59-.75S255.71,166,255.67,166.47Z" style="fill:#fff"></path><path d="M259.4,166.79c0,.44-.3.78-.59.75s-.49-.4-.45-.84.3-.77.59-.75S259.44,166.35,259.4,166.79Z" style="fill:#fff"></path><path d="M263.14,167.11c0,.44-.3.78-.59.75s-.5-.4-.46-.84.3-.77.59-.75S263.18,166.67,263.14,167.11Z" style="fill:#fff"></path><path d="M266.88,167.44c0,.43-.31.77-.6.75s-.49-.41-.45-.84.3-.78.59-.75S266.91,167,266.88,167.44Z" style="fill:#fff"></path><path d="M270.61,167.76c0,.44-.3.77-.59.75s-.5-.4-.46-.84.31-.78.6-.75S270.65,167.32,270.61,167.76Z" style="fill:#fff"></path><path d="M249.81,168.9c0,.44-.3.78-.59.75s-.49-.4-.46-.84.31-.77.6-.75S249.85,168.46,249.81,168.9Z" style="fill:#fff"></path><path d="M253.55,169.22c0,.44-.3.78-.59.75s-.5-.4-.46-.84.3-.77.59-.75S253.59,168.79,253.55,169.22Z" style="fill:#fff"></path><path d="M257.28,169.55c0,.44-.3.77-.59.75s-.49-.4-.45-.84.3-.78.59-.75S257.32,169.11,257.28,169.55Z" style="fill:#fff"></path><path d="M261,169.87c0,.44-.3.77-.59.75s-.5-.4-.46-.84.3-.78.59-.75S261.06,169.43,261,169.87Z" style="fill:#fff"></path><path d="M264.76,170.19c0,.44-.31.78-.6.75s-.49-.4-.45-.84.3-.77.59-.75S264.79,169.75,264.76,170.19Z" style="fill:#fff"></path><path d="M268.49,170.51c0,.44-.3.78-.59.75s-.49-.4-.46-.84.31-.77.6-.75S268.53,170.07,268.49,170.51Z" style="fill:#fff"></path><path d="M272.23,170.83c0,.44-.31.78-.6.75s-.49-.4-.45-.84.3-.77.59-.75S272.27,170.4,272.23,170.83Z" style="fill:#fff"></path><path d="M247.65,172.22c0,.44-.31.78-.6.75s-.49-.4-.45-.84.3-.77.59-.75S247.68,171.78,247.65,172.22Z" style="fill:#fff"></path><path d="M251.38,172.55c0,.43-.3.77-.59.74s-.5-.4-.46-.84.31-.77.6-.75S251.42,172.11,251.38,172.55Z" style="fill:#fff"></path><path d="M255.12,172.87c0,.44-.31.77-.6.75s-.49-.4-.45-.84.3-.78.59-.75S255.15,172.43,255.12,172.87Z" style="fill:#fff"></path><path d="M258.85,173.19c0,.44-.3.77-.59.75s-.49-.4-.46-.84.31-.78.6-.75S258.89,172.75,258.85,173.19Z" style="fill:#fff"></path><path d="M262.59,173.51c0,.44-.31.78-.59.75s-.5-.4-.46-.84.3-.77.59-.75S262.63,173.07,262.59,173.51Z" style="fill:#fff"></path><path d="M266.32,173.83c0,.44-.3.78-.59.75s-.49-.4-.45-.84.3-.77.59-.75S266.36,173.39,266.32,173.83Z" style="fill:#fff"></path><path d="M270.06,174.16c0,.43-.3.77-.59.74s-.5-.4-.46-.84.3-.77.59-.75S270.1,173.72,270.06,174.16Z" style="fill:#fff"></path></g><g style="opacity:0.6000000000000001"><path d="M276,148.88c0,.44-.24.78-.45.77s-.36-.39-.32-.83.24-.78.46-.76S276,148.45,276,148.88Z" style="fill:#fff"></path><path d="M278.73,149.12c0,.44-.24.78-.46.76s-.35-.39-.31-.82.24-.79.45-.77S278.77,148.68,278.73,149.12Z" style="fill:#fff"></path><path d="M281.48,149.36c0,.44-.24.78-.45.76s-.36-.39-.32-.83.24-.78.46-.76S281.52,148.92,281.48,149.36Z" style="fill:#fff"></path><path d="M284.24,149.6c0,.44-.24.78-.46.76s-.35-.39-.31-.83.24-.78.45-.76S284.28,149.16,284.24,149.6Z" style="fill:#fff"></path><path d="M287,149.83c0,.44-.24.78-.45.77s-.36-.39-.32-.83.24-.78.46-.76S287,149.4,287,149.83Z" style="fill:#fff"></path><path d="M289.75,150.07c0,.44-.24.78-.46.76s-.35-.39-.32-.83.25-.78.46-.76S289.79,149.63,289.75,150.07Z" style="fill:#fff"></path><path d="M277.1,151.92c0,.44-.24.78-.45.76s-.36-.39-.32-.83.24-.78.45-.76S277.14,151.48,277.1,151.92Z" style="fill:#fff"></path><path d="M279.86,152.16c0,.44-.25.78-.46.76s-.36-.39-.32-.83.24-.78.46-.76S279.89,151.72,279.86,152.16Z" style="fill:#fff"></path><path d="M282.61,152.39c0,.44-.24.78-.46.77s-.35-.39-.31-.83.24-.78.45-.76S282.65,152,282.61,152.39Z" style="fill:#fff"></path><path d="M285.36,152.63c0,.44-.24.78-.45.76s-.36-.39-.32-.83.24-.78.46-.76S285.4,152.19,285.36,152.63Z" style="fill:#fff"></path><path d="M288.12,152.87c0,.44-.24.78-.46.76s-.35-.39-.31-.83.24-.78.45-.76S288.16,152.43,288.12,152.87Z" style="fill:#fff"></path><path d="M290.87,153.11c0,.44-.24.78-.45.76s-.36-.39-.32-.83.24-.78.46-.76S290.91,152.67,290.87,153.11Z" style="fill:#fff"></path><path d="M275.42,155.28c0,.44-.24.78-.45.76s-.36-.39-.32-.82.24-.78.46-.77S275.46,154.84,275.42,155.28Z" style="fill:#fff"></path><path d="M278.18,155.52c0,.44-.24.78-.46.76s-.35-.39-.32-.83.25-.78.46-.76S278.22,155.08,278.18,155.52Z" style="fill:#fff"></path><path d="M280.93,155.76c0,.44-.24.78-.45.76s-.36-.39-.32-.83.24-.78.45-.76S281,155.32,280.93,155.76Z" style="fill:#fff"></path><path d="M283.69,156c0,.44-.24.78-.46.77s-.35-.39-.32-.83.25-.78.46-.76S283.73,155.56,283.69,156Z" style="fill:#fff"></path><path d="M286.44,156.23c0,.44-.24.78-.45.76s-.36-.39-.32-.82.24-.78.45-.77S286.48,155.79,286.44,156.23Z" style="fill:#fff"></path><path d="M289.2,156.47c0,.44-.25.78-.46.76s-.35-.39-.32-.83.24-.78.46-.76S289.23,156,289.2,156.47Z" style="fill:#fff"></path><path d="M276.55,158.32c0,.44-.24.78-.46.76s-.35-.39-.31-.83.24-.78.45-.76S276.59,157.88,276.55,158.32Z" style="fill:#fff"></path><path d="M279.3,158.55c0,.44-.24.78-.45.77s-.36-.39-.32-.83.24-.78.46-.76S279.34,158.11,279.3,158.55Z" style="fill:#fff"></path><path d="M282.06,158.79c0,.44-.24.78-.46.76s-.35-.39-.31-.83.24-.78.45-.76S282.1,158.35,282.06,158.79Z" style="fill:#fff"></path><path d="M284.81,159c0,.44-.24.78-.45.76s-.36-.39-.32-.83.24-.78.46-.76S284.85,158.59,284.81,159Z" style="fill:#fff"></path><path d="M287.57,159.27c0,.44-.24.78-.46.76s-.35-.39-.32-.83.25-.78.46-.76S287.61,158.83,287.57,159.27Z" style="fill:#fff"></path><path d="M290.32,159.5c0,.44-.24.78-.45.77s-.36-.39-.32-.83.24-.78.45-.76S290.36,159.06,290.32,159.5Z" style="fill:#fff"></path><path d="M274.87,161.68c0,.44-.24.78-.45.76s-.36-.39-.32-.83.24-.78.45-.76S274.91,161.24,274.87,161.68Z" style="fill:#fff"></path><path d="M277.63,161.92c0,.44-.25.78-.46.76s-.35-.39-.32-.83.24-.78.46-.76S277.66,161.48,277.63,161.92Z" style="fill:#fff"></path><path d="M280.38,162.15c0,.44-.24.78-.45.77s-.36-.39-.32-.83.24-.78.45-.76S280.42,161.72,280.38,162.15Z" style="fill:#fff"></path><path d="M283.14,162.39c0,.44-.25.78-.46.76s-.36-.39-.32-.82.24-.78.46-.77S283.17,162,283.14,162.39Z" style="fill:#fff"></path><path d="M285.89,162.63c0,.44-.24.78-.45.76s-.36-.39-.32-.83.24-.78.45-.76S285.93,162.19,285.89,162.63Z" style="fill:#fff"></path><path d="M288.65,162.87c0,.44-.25.78-.46.76s-.36-.39-.32-.83.24-.78.46-.76S288.68,162.43,288.65,162.87Z" style="fill:#fff"></path><path d="M276,164.71c0,.44-.24.78-.46.77s-.35-.39-.32-.83.25-.78.46-.76S276,164.28,276,164.71Z" style="fill:#fff"></path><path d="M278.75,165c0,.44-.24.78-.45.76s-.36-.39-.32-.82.24-.79.45-.77S278.79,164.51,278.75,165Z" style="fill:#fff"></path><path d="M281.51,165.19c0,.44-.24.78-.46.76s-.35-.39-.32-.83.25-.78.46-.76S281.54,164.75,281.51,165.19Z" style="fill:#fff"></path><path d="M284.26,165.43c0,.44-.24.78-.45.76s-.36-.39-.32-.83.24-.78.45-.76S284.3,165,284.26,165.43Z" style="fill:#fff"></path><path d="M287,165.66c0,.44-.25.78-.46.77s-.35-.39-.32-.83.24-.78.46-.76S287.05,165.23,287,165.66Z" style="fill:#fff"></path><path d="M289.77,165.9c0,.44-.24.78-.45.76s-.36-.39-.32-.83.24-.78.45-.76S289.81,165.46,289.77,165.9Z" style="fill:#fff"></path><path d="M274.32,168.08c0,.44-.24.78-.45.76s-.36-.39-.32-.83.24-.78.45-.76S274.36,167.64,274.32,168.08Z" style="fill:#fff"></path><path d="M277.07,168.31c0,.44-.24.78-.45.77s-.36-.39-.32-.83.24-.78.46-.76S277.11,167.88,277.07,168.31Z" style="fill:#fff"></path><path d="M279.83,168.55c0,.44-.24.78-.46.76s-.35-.39-.31-.82.24-.78.45-.77S279.87,168.11,279.83,168.55Z" style="fill:#fff"></path><path d="M282.58,168.79c0,.44-.24.78-.45.76s-.36-.39-.32-.83.24-.78.46-.76S282.62,168.35,282.58,168.79Z" style="fill:#fff"></path><path d="M285.34,169c0,.44-.24.78-.46.76s-.35-.39-.31-.83.24-.78.45-.76S285.38,168.59,285.34,169Z" style="fill:#fff"></path><path d="M288.09,169.26c0,.44-.24.78-.45.77s-.36-.39-.32-.83.24-.78.46-.76S288.13,168.83,288.09,169.26Z" style="fill:#fff"></path><path d="M275.45,171.11c0,.44-.25.78-.46.76s-.35-.39-.32-.82.24-.78.46-.77S275.48,170.67,275.45,171.11Z" style="fill:#fff"></path><path d="M278.2,171.35c0,.44-.24.78-.45.76s-.36-.39-.32-.83.24-.78.45-.76S278.24,170.91,278.2,171.35Z" style="fill:#fff"></path><path d="M281,171.59c0,.44-.25.78-.46.76s-.36-.39-.32-.83.24-.78.46-.76S281,171.15,281,171.59Z" style="fill:#fff"></path><path d="M283.71,171.82c0,.44-.24.78-.45.77s-.36-.39-.32-.83.24-.78.45-.76S283.75,171.39,283.71,171.82Z" style="fill:#fff"></path><path d="M286.46,172.06c0,.44-.24.78-.45.76s-.36-.39-.32-.83.24-.78.46-.76S286.5,171.62,286.46,172.06Z" style="fill:#fff"></path><path d="M289.22,172.3c0,.44-.24.78-.46.76s-.35-.39-.31-.83.24-.78.45-.76S289.26,171.86,289.22,172.3Z" style="fill:#fff"></path><path d="M273.77,174.47c0,.44-.24.78-.46.77s-.35-.39-.31-.83.24-.78.45-.76S273.81,174,273.77,174.47Z" style="fill:#fff"></path><path d="M276.52,174.71c0,.44-.24.78-.45.76s-.36-.39-.32-.82.24-.78.46-.77S276.56,174.27,276.52,174.71Z" style="fill:#fff"></path><path d="M279.28,175c0,.44-.24.78-.46.76s-.35-.39-.31-.83.24-.78.45-.76S279.32,174.51,279.28,175Z" style="fill:#fff"></path><path d="M282,175.19c0,.44-.24.78-.45.76s-.36-.39-.32-.83.24-.78.45-.76S282.07,174.75,282,175.19Z" style="fill:#fff"></path><path d="M284.79,175.42c0,.44-.24.78-.46.77s-.35-.39-.32-.83.25-.78.46-.76S284.83,175,284.79,175.42Z" style="fill:#fff"></path><path d="M287.54,175.66c0,.44-.24.78-.45.76s-.36-.39-.32-.82.24-.78.45-.77S287.58,175.22,287.54,175.66Z" style="fill:#fff"></path></g><rect x="258.13" y="145.4" width="3.55" height="29.98" transform="translate(505.08 342.51) rotate(-175.07)" style="fill:#AF1740"></rect><rect x="281.94" y="147.41" width="2.6" height="29.98" transform="translate(551.49 348.54) rotate(-175.07)" style="fill:#AF1740"></rect><rect x="246.65" y="156.52" width="43.64" height="19.62" transform="translate(521.65 355.09) rotate(-175.07)" style="opacity:0.2;isolation:isolate"></rect><rect x="273.34" y="147.31" width="17.34" height="29.98" transform="translate(549.04 348.21) rotate(-175.07)" style="fill:#fff;opacity:0.2"></rect><polygon points="263.24 159.15 263.39 159.22 263.39 159.19 263.41 159.2 263.43 159.16 263.24 159.15" style="fill:#263238"></polygon><polygon points="321.86 181.04 321.34 180.8 285.14 161.37 263.87 159.06 263.56 158.9 248.81 194.07 283.24 212.54 306.7 215.17 321.86 181.04" style="fill:#AF1740"></polygon><polygon points="266.35 163.78 267.06 165.83 269.14 166.41 267.41 167.72 267.51 169.88 265.73 168.64 263.7 169.4 264.33 167.32 262.98 165.63 265.15 165.59 266.35 163.78" style="fill:#fff;opacity:0.2"></polygon><polygon points="284.48 177.06 283.32 178.89 284.19 180.88 282.08 180.36 280.46 181.79 280.31 179.63 278.44 178.52 280.45 177.71 280.93 175.6 282.32 177.26 284.48 177.06" style="fill:#fff;opacity:0.2"></polygon><polygon points="272.79 197.29 271.63 199.13 272.5 201.12 270.39 200.59 268.76 202.03 268.62 199.86 266.75 198.76 268.76 197.95 269.24 195.84 270.63 197.5 272.79 197.29" style="fill:#fff;opacity:0.2"></polygon><polygon points="267.19 187.66 266.03 189.5 266.89 191.49 264.79 190.96 263.17 192.39 263.02 190.23 261.15 189.13 263.16 188.32 263.64 186.2 265.03 187.86 267.19 187.66" style="fill:#fff;opacity:0.2"></polygon><polygon points="277.04 192.13 276.37 193.21 276.87 194.38 275.64 194.07 274.69 194.91 274.6 193.64 273.51 192.99 274.69 192.52 274.96 191.28 275.78 192.25 277.04 192.13" style="fill:#fff;opacity:0.2"></polygon><polygon points="256.82 191.22 256.14 192.3 256.65 193.46 255.42 193.15 254.46 193.99 254.38 192.73 253.28 192.08 254.46 191.61 254.74 190.37 255.55 191.34 256.82 191.22" style="fill:#fff;opacity:0.2"></polygon><polygon points="261.4 179.6 260.73 180.67 261.23 181.84 260 181.53 259.05 182.37 258.96 181.1 257.87 180.46 259.04 179.98 259.32 178.74 260.14 179.72 261.4 179.6" style="fill:#fff;opacity:0.2"></polygon><polygon points="293.83 176.29 293.16 177.37 293.66 178.53 292.43 178.22 291.48 179.06 291.39 177.79 290.3 177.15 291.47 176.67 291.75 175.44 292.57 176.41 293.83 176.29" style="fill:#fff;opacity:0.2"></polygon><polygon points="269.52 173.04 269.42 175.91 271.73 177.61 268.97 178.4 268.06 181.12 266.45 178.75 263.59 178.72 265.35 176.46 264.49 173.73 267.18 174.71 269.52 173.04" style="fill:#fff;opacity:0.2"></polygon><polygon points="283.56 186.51 285.26 188.81 288.13 188.71 286.47 191.05 287.45 193.74 284.71 192.88 282.45 194.65 282.43 191.78 280.05 190.18 282.76 189.27 283.56 186.51" style="fill:#fff;opacity:0.2"></polygon><polygon points="282.46 199.87 282.36 202.74 284.67 204.44 281.91 205.23 281 207.95 279.39 205.58 276.53 205.55 278.29 203.29 277.43 200.56 280.12 201.53 282.46 199.87" style="fill:#fff;opacity:0.2"></polygon><polygon points="300.77 180.78 300.97 182.32 302.25 182.16 300.96 183.83 300.75 185.67 299.75 185.16 298.33 186.45 299.01 184.46 298.35 183.42 299.76 182.71 300.77 180.78" style="fill:#fff;opacity:0.2"></polygon><polygon points="310.87 186.52 309.89 188.47 310.19 189.91 308.89 190.12 307.65 191.86 307.83 190.05 306.76 189.68 308.17 188.35 308.75 186.38 309.44 187.38 310.87 186.52" style="fill:#fff;opacity:0.2"></polygon><polygon points="300.69 207.63 299.71 209.57 300.01 211.02 298.71 211.22 297.47 212.97 297.65 211.15 296.58 210.79 297.99 209.46 298.57 207.49 299.26 208.48 300.69 207.63" style="fill:#fff;opacity:0.2"></polygon><polygon points="298.27 201.09 297.29 203.03 297.6 204.48 296.3 204.68 295.06 206.43 295.23 204.61 294.16 204.25 295.57 202.92 296.15 200.94 296.84 201.94 298.27 201.09" style="fill:#fff;opacity:0.2"></polygon><polygon points="304.12 201.85 303.54 202.99 303.72 203.83 302.96 203.95 302.23 204.97 302.33 203.91 301.71 203.7 302.53 202.92 302.87 201.76 303.28 202.35 304.12 201.85" style="fill:#fff;opacity:0.2"></polygon><polygon points="291.07 207.41 290.5 208.55 290.68 209.4 289.92 209.52 289.19 210.54 289.3 209.47 288.67 209.26 289.49 208.48 289.83 207.33 290.24 207.91 291.07 207.41" style="fill:#fff;opacity:0.2"></polygon><polygon points="295.54 195.96 294.96 197.09 295.14 197.94 294.38 198.06 293.65 199.08 293.76 198.02 293.13 197.81 293.95 197.03 294.29 195.87 294.7 196.46 295.54 195.96" style="fill:#fff;opacity:0.2"></polygon><polygon points="317.05 182.93 316.48 184.06 316.66 184.91 315.9 185.03 315.17 186.05 315.27 184.99 314.65 184.78 315.47 184 315.81 182.84 316.22 183.43 317.05 182.93" style="fill:#fff;opacity:0.2"></polygon><polygon points="301.65 187.76 301.22 190.26 302.51 191 300.61 192.55 299.67 195.18 298.93 193.64 297.07 194.52 298.5 192.01 298.29 189.93 299.92 189.93 301.65 187.76" style="fill:#fff;opacity:0.2"></polygon><polygon points="309.07 194.96 309.89 196.4 311.76 195.42 310.38 197.95 310.68 199.97 309.01 200.08 307.31 202.32 307.66 199.85 306.32 199.22 308.2 197.58 309.07 194.96" style="fill:#fff;opacity:0.2"></polygon><polygon points="306.65 206.81 306.23 209.31 307.51 210.06 305.62 211.6 304.68 214.23 303.94 212.69 302.07 213.57 303.51 211.07 303.3 208.98 304.92 208.98 306.65 206.81" style="fill:#fff;opacity:0.2"></polygon><polygon points="297.92 177.47 321.78 181.19 306.56 215.43 283.03 212.93 297.92 177.47" style="opacity:0.2;isolation:isolate"></polygon><polygon points="263.35 158.95 285.14 161.37 321.59 180.93 298.04 177.25 263.35 158.95" style="fill:#fff;opacity:0.2"></polygon><polygon points="298.38 214.65 314.28 179.5 278.74 160.42 274.45 160.37 306.44 178.68 292.89 213.86 298.38 214.65" style="fill:#fff"></polygon><polygon points="302.83 170.86 282.44 168.83 266.39 203.5 261.24 200.74 275.69 165.34 298.11 168.33 302.83 170.86" style="fill:#fff"></polygon><g style="opacity:0.2"><polygon points="298.38 214.65 314.28 179.5 278.74 160.42 274.45 160.37 306.44 178.68 292.89 213.86 298.38 214.65" style="fill:#fff"></polygon><polygon points="302.83 170.86 282.44 168.83 266.39 203.5 261.24 200.74 275.69 165.34 298.11 168.33 302.83 170.86" style="fill:#fff"></polygon></g><polygon points="314.12 179.79 306.4 178.75 292.83 213.97 298.3 214.79 314.12 179.79" style="opacity:0.2;isolation:isolate"></polygon><polygon points="275.61 165.49 282.41 168.91 266.39 203.5 261.24 200.74 275.61 165.49" style="opacity:0.1;isolation:isolate"></polygon><path d="M290.77,167.78s-5.75-12.48-10.91-12.9c-4.09-.33-5.92,4.24,1.87,9.84-3.3-1.4-7.29-2.91-10-3.25l5.92,4.14a82.88,82.88,0,0,1,12.75,4,5.73,5.73,0,0,1-1.17,2.18l4.53,1.95s-.63-1.91-1.18-3.36c5.22,2.17,16.7,6.28,20.27,2.18C317.55,167.24,300.06,163.1,290.77,167.78ZM279.2,156.11c1.88-1.06,10.68,11.88,10.68,11.88C283.71,165.71,277.31,157.17,279.2,156.11Zm12.52,12.53s18.13-2.36,20.17,1.43S295.48,171.13,291.72,168.64Z" style="fill:#fff"></path><path d="M290.77,167.78s-5.75-12.48-10.91-12.9c-4.09-.33-5.92,4.24,1.87,9.84-3.3-1.4-7.29-2.91-10-3.25l5.92,4.14a82.88,82.88,0,0,1,12.75,4,5.73,5.73,0,0,1-1.17,2.18l4.53,1.95s-.63-1.91-1.18-3.36c5.22,2.17,16.7,6.28,20.27,2.18C317.55,167.24,300.06,163.1,290.77,167.78ZM279.2,156.11c1.88-1.06,10.68,11.88,10.68,11.88C283.71,165.71,277.31,157.17,279.2,156.11Zm12.52,12.53s18.13-2.36,20.17,1.43S295.48,171.13,291.72,168.64Z" style="opacity:0.1"></path></g><path d="M117.41,177s8.55,23.59,11.09,28.54,52.32,9.83,52.32,9.83,11,7.12,13,6.79,6.58-9.67,4.58-10.67-8.08-7.88-11.37-7.77-6.17,3.77-6.17,3.77-41-11.75-43.21-12.62c-1.58-.63-8.05-23.47-8.05-23.47Z" style="fill:#b97964"></path><path d="M118.17,154.41c8.7-5.93,14.52,32.9,21.12,37.94s40.16,13,40.16,13l-1.85,12.23s-38.27-1.92-49.1-12C110.24,188.53,110,160,118.17,154.41Z" style="fill:#AF1740"></path><path d="M118.17,154.41c8.7-5.93,14.52,32.9,21.12,37.94s40.16,13,40.16,13l-1.85,12.23s-38.27-1.92-49.1-12C110.24,188.53,110,160,118.17,154.41Z" style="fill:#fff;opacity:0.5"></path></g></g></svg>